
<?xml version="1.0" standalone="no"?>
<!DOCTYPE svg PUBLIC "-//W3C//DTD SVG 1.1//EN" "http://www.w3.org/Graphics/SVG/1.1/DTD/svg11.dtd" >
<svg xmlns="http://www.w3.org/2000/svg">
<metadata>Generated by IcoMoon</metadata>
<defs>
<font id="icomoon" horiz-adv-x="1024">
<font-face units-per-em="1024" ascent="960" descent="-64" />
<missing-glyph horiz-adv-x="1024" />
<glyph unicode="&#x20;" horiz-adv-x="512" d="" />
<glyph unicode="&#xe600;" glyph-name="uniE600" d="M564.736 395.264c128.448-19.008 266.112-18.88 459.264 174.272l-45.248 45.248c-16.192-16.192-31.68-30.272-46.912-43.584l-268.16 268.16c13.248 15.232 27.392 30.784 43.584 46.912l-45.248 45.248c-193.216-193.088-193.408-330.688-174.4-459.136-128.448 19.008-266.048 18.88-459.264-174.336l45.248-45.248c16.192 16.192 31.68 30.272 46.912 43.584l268.16-268.16c-13.248-15.232-27.392-30.784-43.584-46.912l45.376-45.312c193.152 193.152 193.28 330.816 174.272 459.264zM881.536 531.008c-19.2-13.824-37.632-25.28-55.552-34.944l-237.568 237.504c9.664 17.92 21.12 36.352 34.944 55.552l258.176-258.112zM560.896 670.592l202.112-202.112c-75.648-24.768-141.952-17.6-208.96-6.784-10.752 67.008-17.92 133.312 6.848 208.896zM498.304 405.952c10.816-67.008 17.92-133.312-6.848-208.96l-202.048 202.112c75.584 24.768 141.888 17.6 208.896 6.848zM170.816 336.64c19.2 13.824 37.632 25.28 55.552 34.944l237.568-237.568c-9.664-17.92-21.12-36.352-34.944-55.552l-258.176 258.176z" />
<glyph unicode="&#xe601;" glyph-name="uniE601" d="M944.128 548.224l-432.128 246.912-432.128-246.912-31.744 55.552 463.872 265.088 463.872-265.088zM896 0h-768v448h64v-384h640v384h64z" />
<glyph unicode="&#xe602;" glyph-name="uniE602" d="M320 768h640v-64h-640v64zM320 448h640v-64h-640v64zM320 128h640v-64h-640v64zM192 768c0-35.346-28.654-64-64-64s-64 28.654-64 64c0 35.346 28.654 64 64 64s64-28.654 64-64zM192 448c0-35.346-28.654-64-64-64s-64 28.654-64 64c0 35.346 28.654 64 64 64s64-28.654 64-64zM192 128c0-35.346-28.654-64-64-64s-64 28.654-64 64c0 35.346 28.654 64 64 64s64-28.654 64-64z" />
<glyph unicode="&#xe603;" glyph-name="uniE603" d="M128 832h640v-256h64v320h-768v-896h576v64h-512zM1024 256h-192v192h-64v-192h-192v-64h192v-192h64v192h192z" />
<glyph unicode="&#xe604;" glyph-name="uniE604" d="M726.648 278.62l256.004-256.004-45.254-45.254-256.004 256.004 45.254 45.254zM448 896c-212.032 0-384-171.968-384-384s171.968-384 384-384 384 171.968 384 384-171.968 384-384 384zM448 192c-176.768 0-320 143.232-320 320 0 176.704 143.232 320 320 320s320-143.296 320-320c0-176.768-143.232-320-320-320z" />
<glyph unicode="&#xe605;" glyph-name="uniE605" d="M270.72 408.64c0-57.084-46.276-103.36-103.36-103.36s-103.36 46.276-103.36 103.36c0 57.084 46.276 103.36 103.36 103.36s103.36-46.276 103.36-103.36zM615.36 408.64c0-57.084-46.276-103.36-103.36-103.36s-103.36 46.276-103.36 103.36c0 57.084 46.276 103.36 103.36 103.36s103.36-46.276 103.36-103.36zM960 408.64c0-57.084-46.276-103.36-103.36-103.36s-103.36 46.276-103.36 103.36c0 57.084 46.276 103.36 103.36 103.36s103.36-46.276 103.36-103.36z" />
<glyph unicode="&#xe606;" glyph-name="uniE606" d="M949.76 525.44c-24.384 32.128-61.568 50.56-101.888 50.56h-198.592c24.448 70.976 59.84 206.080 8.448 283.968-17.216 26.048-51.968 57.088-119.744 57.088-40.128 0-51.904-45.12-71.232-119.936-29.44-113.536-73.984-285.12-204.48-285.12h-198.272v-512h694.976c28.16 0 54.976 9.024 77.504 26.112 22.592 17.216 38.4 40.576 45.824 67.648l88.896 320c10.816 38.912 3.008 79.616-21.44 111.68zM128 64v384h64v-384h-64zM909.568 430.848l-88.96-320.064c-3.712-13.504-11.648-25.216-22.848-33.728s-24.64-13.056-38.784-13.056h-502.976v384h6.272c180.032 0 234.112 208.512 266.432 333.056 6.72 25.856 14.784 57.024 20.992 71.552 25.664-2.048 43.648-11.264 54.592-27.84 41.408-62.784-9.664-218.56-30.848-268.16l-19.008-44.608h293.44c20.16 0 38.72-9.216 51.008-25.28 12.16-16.064 16.064-36.416 10.688-55.872z" />
<glyph unicode="&#xe607;" glyph-name="uniE607" d="M971.2 482.24l-88.896 320c-7.424 27.072-23.232 50.432-45.824 67.648-22.464 17.088-49.28 26.112-77.504 26.112h-694.976v-512h198.272c130.496 0 175.040-171.648 204.48-285.12 19.392-74.816 31.104-119.936 71.232-119.936 67.84 0 102.592 31.040 119.744 57.088 51.392 77.952 16 212.992-8.448 284.032h198.592c40.32 0 77.504 18.368 101.888 50.496 24.448 32.064 32.256 72.832 21.44 111.68zM128 448v384h64v-384h-64zM898.88 409.28c-12.224-16-30.848-25.28-51.008-25.28h-293.44l19.008-44.608c21.184-49.536 72.32-205.376 30.848-268.096-11.008-16.64-28.928-25.792-54.656-27.904-6.208 14.528-14.272 45.696-20.992 71.552-32.256 124.544-86.336 333.056-266.368 333.056h-6.272v384h502.976c14.144 0 27.52-4.48 38.72-13.056s19.2-20.224 22.848-33.728l88.96-320.064c5.44-19.456 1.536-39.808-10.624-55.872z" />
<glyph unicode="&#xe608;" glyph-name="uniE608" d="M768 128h-640v768h640v-768zM192 192h512v640h-512v-640zM896 0h-640v64h576v704h64z" />
<glyph unicode="&#xe609;" glyph-name="uniE609" d="M128 896v-896h429.248l338.752 338.752v557.248h-768zM576 109.248v210.752h210.752l-210.752-210.752zM832 384h-320v-320h-320v768h640v-448z" />
<glyph unicode="&#xe60a;" glyph-name="uniE60A" d="M896 0h-768v896h768v-192h-64v128h-640v-768h640v128h64zM608 178.752l-246.656 246.592 45.312 45.312 201.344-201.408 353.344 353.408 45.312-45.312z" />
<glyph unicode="&#xe60b;" glyph-name="uniE60B" d="M896 561.92v334.080h-768v-334.080l-64 39.36v-601.28h896v601.28l-64-39.36zM192 832h640v-309.504l-320-196.928-320 196.928v309.504zM896 64h-768v422.72l384-236.288 384 236.288v-422.72z" />
<glyph unicode="&#xe60c;" glyph-name="uniE60C" d="M512 896c-141.376 0-256-114.624-256-256s114.624-256 256-256 256 114.624 256 256-114.624 256-256 256zM512 448c-105.984 0-192 85.952-192 192s86.016 192 192 192 192-85.952 192-192-86.016-192-192-192zM576 192h448v-64h-448v64zM768 384h64v-448h-64v448zM512 64c-135.040 0-320 0-320 48 0 150.016 143.552 272 320 272v64c-212.032 0-384-150.464-384-336 0-112 171.968-112 384-112v64z" />
<glyph unicode="&#xe60d;" glyph-name="uniE60D" d="M609.472 862.464c0-53.832-43.64-97.472-97.472-97.472s-97.472 43.64-97.472 97.472c0 53.832 43.64 97.472 97.472 97.472s97.472-43.64 97.472-97.472zM609.472 33.472c0-53.832-43.64-97.472-97.472-97.472s-97.472 43.64-97.472 97.472c0 53.832 43.64 97.472 97.472 97.472s97.472-43.64 97.472-97.472zM1024 448c0-53.832-43.64-97.472-97.472-97.472s-97.472 43.64-97.472 97.472c0 53.832 43.64 97.472 97.472 97.472s97.472-43.64 97.472-97.472zM194.944 448c0-53.832-43.64-97.472-97.472-97.472s-97.472 43.64-97.472 97.472c0 53.832 43.64 97.472 97.472 97.472s97.472-43.64 97.472-97.472zM902.656 741.12c0-53.868-43.668-97.536-97.536-97.536s-97.536 43.668-97.536 97.536c0 53.868 43.668 97.536 97.536 97.536s97.536-43.668 97.536-97.536zM316.416 154.88c0-53.868-43.668-97.536-97.536-97.536s-97.536 43.668-97.536 97.536c0 53.868 43.668 97.536 97.536 97.536s97.536-43.668 97.536-97.536zM902.656 154.88c0-53.868-43.668-97.536-97.536-97.536s-97.536 43.668-97.536 97.536c0 53.868 43.668 97.536 97.536 97.536s97.536-43.668 97.536-97.536zM316.416 741.12c0-53.868-43.668-97.536-97.536-97.536s-97.536 43.668-97.536 97.536c0 53.868 43.668 97.536 97.536 97.536s97.536-43.668 97.536-97.536z" />
<glyph unicode="&#xe60e;" glyph-name="uniE60E" d="M960 0h-896v704h384v-64h-320v-576h768v256h64zM704 896v-64h210.752l-553.408-553.344 45.312-45.312 553.344 553.408v-210.752h64v320z" />
<glyph unicode="&#xe60f;" glyph-name="uniE60F" d="M384 512c0-35.346-28.654-64-64-64s-64 28.654-64 64c0 35.346 28.654 64 64 64s64-28.654 64-64zM576 512c0-35.346-28.654-64-64-64s-64 28.654-64 64c0 35.346 28.654 64 64 64s64-28.654 64-64zM768 512c0-35.346-28.654-64-64-64s-64 28.654-64 64c0 35.346 28.654 64 64 64s64-28.654 64-64zM384 1.792v190.208h-224c-25.6 0-49.728 9.984-67.904 28.096s-28.096 42.304-28.096 67.904v448c0 25.6 9.984 49.728 28.096 67.904s42.304 28.096 67.904 28.096h704c25.6 0 49.728-9.984 67.904-28.096s28.096-42.304 28.096-67.904v-448c0-25.6-9.984-49.728-28.096-67.904s-42.304-28.096-67.904-28.096h-213.824l-266.176-190.208zM160 768c-8.576 0-16.576-3.328-22.656-9.344-6.016-6.080-9.344-14.144-9.344-22.656v-448c0-8.576 3.328-16.576 9.344-22.656s14.080-9.344 22.656-9.344h288v-129.792l181.696 129.792h234.304c8.576 0 16.576 3.328 22.656 9.344s9.344 14.080 9.344 22.656v448c0 8.512-3.328 16.576-9.344 22.656-6.080 6.016-14.080 9.344-22.656 9.344h-704z" />
<glyph unicode="&#xe610;" glyph-name="uniE610" d="M384 576c0-35.346-28.654-64-64-64s-64 28.654-64 64c0 35.346 28.654 64 64 64s64-28.654 64-64zM931.904 803.904c-18.176 18.112-42.304 28.096-67.904 28.096h-704c-25.6 0-49.728-9.984-67.904-28.096s-28.096-42.304-28.096-67.904v-640c0-25.6 9.984-49.728 28.096-67.904s42.304-28.096 67.904-28.096h704c25.6 0 49.728 9.984 67.904 28.096s28.096 42.304 28.096 67.904v640c0 25.6-9.984 49.728-28.096 67.904zM896 96c0-8.576-3.328-16.576-9.344-22.656s-14.080-9.344-22.656-9.344h-704c-8.576 0-16.576 3.328-22.656 9.344s-9.344 14.080-9.344 22.656v80.64l128 102.4 162.368-129.856 285.632 285.568 192-192v-146.752zM896 333.248l-192 192-290.368-290.368-157.632 126.144-128-102.4v477.376c0 8.512 3.328 16.576 9.344 22.656 6.080 6.016 14.080 9.344 22.656 9.344h704c8.576 0 16.576-3.328 22.656-9.344 6.016-6.080 9.344-14.144 9.344-22.656v-402.752z" />
<glyph unicode="&#xe611;" glyph-name="uniE611" d="M918.656 809.344l-45.312 45.312-361.344-361.408-361.344 361.408-45.312-45.312 361.408-361.344-361.408-361.344 45.312-45.312 361.344 361.408 361.344-361.408 45.312 45.312-361.408 361.344z" />
<glyph unicode="&#xe612;" glyph-name="uniE612" horiz-adv-x="960" d="M791.808 533.376l-311.808 346.496-311.808-346.496 47.616-42.752 232.192 257.984v-748.608h64v748.608l232.192-257.984z" />
<glyph unicode="&#xe613;" glyph-name="uniE613" d="M646.784 423.168c72.512 45.184 121.216 125.056 121.216 216.832 0 141.376-114.624 256-256 256s-256-114.624-256-256c0-91.776 48.704-171.648 121.216-216.832-145.472-54.592-249.216-194.624-249.216-359.168v-64h64v64c0 176.768 143.232 320 320 320s320-143.232 320-320v-64h64v64c0 164.544-103.744 304.576-249.216 359.168zM320 640c0 105.984 86.016 192 192 192s192-86.016 192-192-86.016-192-192-192-192 86.016-192 192z" />
<glyph unicode="&#xe614;" glyph-name="uniE614" d="M64 768v-704h896v704h-896zM846.016 704l-334.016-278.4-334.016 278.4h668.032zM128 128v534.4l384-320 384 320v-534.4h-768z" />
<glyph unicode="&#xe615;" glyph-name="uniE615" d="M512 640c-106.048 0-192-85.952-192-192s85.952-192 192-192 192 85.952 192 192-85.952 192-192 192zM512 320c-70.656 0-128 57.344-128 128s57.344 128 128 128 128-57.344 128-128-57.344-128-128-128zM960 352v192l-80 13.312c-7.616 25.792-17.728 50.56-30.4 73.728l46.976 65.792-135.744 135.808-65.792-46.976c-23.168 12.544-47.936 22.656-73.728 30.336l-13.312 80h-192l-13.312-80c-25.792-7.68-50.56-17.728-73.792-30.4l-65.792 47.040-135.744-135.744 46.976-65.728c-12.608-23.296-22.72-48.064-30.336-73.856l-80-13.312v-192l80-13.312c7.616-25.792 17.728-50.56 30.4-73.728l-47.040-65.856 135.744-135.744 65.728 46.976c23.232-12.608 48-22.656 73.728-30.4l13.44-79.936h192l13.312 80c25.792 7.616 50.56 17.728 73.728 30.336l65.792-46.912 135.744 135.744-46.976 65.728c12.608 23.232 22.656 48 30.4 73.728l80 13.376zM830.080 395.2l-11.392-38.272c-6.592-22.016-15.104-42.752-25.344-61.504l-19.136-35.2 38.72-54.272-59.072-59.072-54.144 38.72-35.136-19.072c-19.008-10.304-39.68-18.752-61.376-25.216l-38.464-11.392-11.008-65.92h-83.52l-11.008 65.92-38.272 11.392c-22.016 6.592-42.752 15.104-61.504 25.344l-35.2 19.136-54.272-38.72-59.008 59.008 38.784 54.336-19.2 35.2c-10.304 18.816-18.688 39.424-25.152 61.184l-11.392 38.464-65.984 11.008v83.456l65.984 11.008 11.392 38.464c6.464 21.696 14.912 42.368 25.28 61.376l19.136 35.2-38.784 54.208 59.008 59.008 54.272-38.72 35.2 19.136c18.816 10.24 39.488 18.752 61.504 25.344l38.272 11.328 11.008 65.92h83.52l11.008-65.984 38.464-11.392c21.696-6.464 42.368-14.848 61.376-25.216l35.2-19.072 54.208 38.656 59.136-59.136-38.784-54.336 19.2-35.2c10.304-18.88 18.752-39.488 25.216-61.248l11.392-38.464 65.792-10.88v-83.584l-65.92-10.944z" />
<glyph unicode="&#xe616;" glyph-name="uniE616" horiz-adv-x="960" d="M640 800v-70.72c113.856-58.304 192-176.576 192-313.28 0-194.368-157.632-352-352-352s-352 157.632-352 352c0 136.704 78.144 254.912 192 313.28v70.72c-150.336-62.656-256-210.944-256-384 0-229.76 186.24-416 416-416s416 186.24 416 416c0 173.056-105.664 321.344-256 384zM448 896h64v-448h-64v448z" />
<glyph unicode="&#xe617;" glyph-name="uniE617" d="M180.864 64.064l-32.896 54.848c93.696 56 153.408 151.552 168.256 269.056l63.488-8c-17.344-137.408-87.936-249.664-198.848-315.904zM539.904-51.968l-49.856 40.128c98.048 121.984 149.952 281.024 149.952 459.84 0 83.776-44.224 128-128 128s-128-44.224-128-128h-64c0 118.464 73.536 192 192 192s192-73.536 192-192c0-193.6-56.768-366.464-164.096-499.968zM350.016-29.632l-40.896 49.28c111.808 92.672 170.88 240.768 170.88 428.352h64c0-207.232-67.072-372.416-193.984-477.632zM726.784-18.56l-56.768 29.632c65.024 124.672 97.984 271.744 97.984 436.928 0 114.368-90.304 224.32-205.568 250.176l14.016 62.528c145.664-32.832 255.552-167.232 255.552-312.704 0-175.616-35.392-332.544-105.216-466.56zM99.84 177.536l-34.176 54.144c77.952 49.088 126.336 132.032 126.336 216.32 0 154.688 127.36 296.576 284.032 316.224l8-63.488c-125.76-15.808-228.032-129.152-228.032-252.736 0-106.112-59.904-209.728-156.16-270.464zM960 256h-64v192c0 229.696-154.304 384-384 384s-384-154.304-384-384v-128h-64v128c0 263.744 184.256 448 448 448s448-184.256 448-448v-192z" />
<glyph unicode="&#xe618;" glyph-name="uniE618" d="M583.872 457.664c-40.256 10.304-82.88 13.376-128.832 9.28-69.632-6.72-128.448-27.968-174.976-63.040-51.264-38.656-74.624-84.032-69.504-134.912 3.456-33.92 19.968-63.936 49.152-89.088 26.624-22.976 61.184-40 102.656-50.496 28.672-7.296 59.072-11.008 90.24-11.008 12.608 0 25.344 0.576 38.592 1.728 69.632 6.656 128.576 27.904 175.040 62.976 51.2 38.72 74.56 84.032 69.44 134.848-3.456 33.92-19.968 63.936-49.216 89.152-26.432 22.976-60.928 39.936-102.592 50.56zM627.648 234.304c-36.928-27.904-84.928-44.864-142.464-50.368-37.696-3.456-73.728-0.96-107.072 7.488-31.808 8.064-57.536 20.48-76.544 36.928-16.64 14.336-25.536 29.76-27.392 47.040-1.024 10.112-4.032 40.768 44.416 77.376 36.992 27.968 84.928 44.928 142.4 50.432 11.072 1.024 21.952 1.472 32.64 1.472 25.856 0 50.944-3.008 74.432-9.024 31.936-8.128 57.664-20.544 76.544-36.864 16.704-14.464 25.6-29.888 27.456-47.168 1.024-10.048 4.032-40.704-44.416-77.312zM906.752 429.312c-17.28 10.944-36.544 20.16-57.728 27.52 16.064 48.32 13.12 88.192-9.088 119.168-40.896 54.336-127.168 62.72-237.696 22.144 8.064 48.768-1.408 86.848-28.416 113.408-37.632 37.696-95.36 42.048-174.72 11.2-69.312-26.944-138.432-74.56-205.632-141.696-50.496-50.496-90.24-102.464-118.016-154.56-28.8-53.76-43.456-105.792-43.456-154.688 0-47.552 14.464-92.032 42.944-132.224 27.328-38.464 63.744-70.592 108.16-95.36 42.688-23.872 91.456-42.752 144.96-56.192 53.568-13.312 108.864-20.032 164.416-20.032 55.616 0 110.016 6.272 161.536 18.56 51.776 12.288 97.664 29.248 136.448 50.24 38.656 20.736 73.152 44.8 102.4 71.424 30.208 27.456 53.44 56.768 68.992 86.976 16.448 31.552 24.768 63.296 24.768 94.272 0 30.464-8.256 58.624-24.512 83.712-15.296 23.744-33.92 42.688-55.36 56.128zM905.088 224.64c-12.096-23.488-30.656-46.72-55.232-68.992-25.344-23.168-55.552-44.16-89.664-62.528-33.92-18.368-74.624-33.28-120.96-44.288-93.12-22.208-198.592-22.72-295.68 1.344-47.872 12.032-91.392 28.8-129.216 49.92-36.032 20.096-65.408 45.952-87.168 76.544-20.992 29.568-31.168 60.672-31.168 95.168 0 38.272 12.032 80.128 35.84 124.48 24.96 46.528 60.864 93.44 106.944 139.52 60.8 60.736 122.56 103.616 183.488 127.296 27.264 10.56 50.624 15.936 69.184 15.936 16.384 0 28.544-4.16 37.312-12.928 15.296-15.040 16.448-44.288 3.008-87.616-1.408-4.864-5.504-19.712 1.6-34.368 5.888-11.712 16.704-19.52 29.888-21.376 2.496-0.384 4.992-0.512 7.552-0.512l11.264 1.152c4.352 0.768 8.256 1.856 17.472 5.056 89.152 37.888 165.376 40.832 188.8 9.664 10.304-14.464 9.088-38.4-3.84-71.168l-2.688-11.84c-5.824-15.744-0.896-32.768 13.376-44.032 5.376-3.968 9.664-6.528 14.144-8.256l12.032-4.224c19.072-6.016 36.224-13.824 51.264-23.296 13.44-8.512 25.408-20.8 35.776-36.8 9.536-14.784 14.272-30.784 14.272-48.96-0.064-20.928-5.824-42.112-17.6-64.896zM832 960h-128v-64h128c94.4 0 128-82.624 128-160v-96h64v96c0 134.016-77.184 224-192 224zM832 693.312v-53.312h64v53.312c0 82.944-48.576 138.688-120.896 138.688h-71.104v-64h71.104c52.8 0 56.896-57.216 56.896-74.688z" />
<glyph unicode="&#xe619;" glyph-name="uniE619" d="M676.16-32c-43.648 0-84.16 8.576-115.84 24.256-19.968-2.624-34.88-3.264-44.992-3.264h-6.72c-10.048 0-25.088 0.64-44.992 3.264-63.232-31.488-164.032-32-244.032 1.152-40.512 16.832-63.936 40.128-69.696 69.248-3.84 19.456 1.344 36.288 7.744 48.64-2.56 20.16 10.368 39.488 23.104 50.496 1.472 1.344 3.2 2.624 4.928 3.968-3.968 6.592-7.552 12.992-10.816 19.2-8.832-9.408-18.56-18.304-28.416-24.32-9.088-5.44-19.968-10.944-32.64-10.944-43.52 0-48.96 52.288-52.48 86.912-6.528 62.976 35.904 157.76 68.032 204.928 6.080 8.96 12.416 17.28 18.944 25.024-4.544 11.776-7.040 21.632-8.448 28.672-1.088 5.312-1.6 10.752-1.6 16 0 8 1.216 16.064 3.584 24.064 2.048 6.72 4.672 12.672 7.936 18.304 0.896 1.664 1.856 3.2 2.816 4.608l2.304 11.712c2.24 11.264 6.528 21.248 12.736 29.888 4.928 6.976 11.136 13.12 18.176 18.048 0.256 0.192 0.512 0.384 0.832 0.576 0.64 14.272 2.048 30.848 4.416 50.816 7.744 67.904 67.2 159.488 132.416 204.096 72.064 49.28 153.152 54.592 184.704 54.592 37.696-0.512 122.944-6.72 192.448-54.656 67.456-46.272 120.128-138.944 132.032-201.792 3.264-17.088 5.568-30.848 7.040-42.496l3.968-3.968c15.424-15.168 27.648-32.384 36.032-50.944 9.152-20.288 13.696-41.728 13.632-63.872 0-13.248-1.536-26.816-4.736-40.128-0.96-4.608-2.432-9.344-4.352-14.208 3.52-4.544 6.976-9.344 10.304-14.272 32.256-47.232 74.624-142.016 68.096-204.992-3.584-34.624-9.024-86.912-52.48-86.912v0c-12.608 0-23.552 5.504-32.576 10.944-9.92 5.952-19.776 14.848-28.544 24.32-3.264-6.208-6.848-12.608-10.816-19.2 1.664-1.344 3.328-2.624 4.8-3.904 12.864-11.136 25.792-30.464 23.232-50.624 6.4-12.288 11.584-29.184 7.744-48.64-5.76-29.12-29.184-52.416-69.696-69.248-40-16.576-84.352-25.344-128.128-25.344zM572.608 58.752l9.728-5.76c44.928-26.304 131.456-27.904 197.568-0.512 23.104 9.6 30.656 18.688 31.36 22.528 0.832 3.968-4.096 10.816-4.992 11.712l-42.368 42.176 10.048 2.048-27.136 15.488 21.184 28.928c27.392 37.312 44.096 81.728 44.224 82.176l22.592 60.288 34.496-54.4c6.464-10.24 17.6-25.344 27.84-36.224 0.64 4.416 1.28 9.728 1.92 16 3.968 38.848-26.944 117.76-57.344 162.304-6.272 9.152-12.992 17.6-19.712 25.216l-15.488 17.536 12.032 20.032c5.696 9.28 7.040 13.376 7.616 15.744 2.112 9.28 3.136 17.6 3.136 26.176 0.064 12.992-2.624 25.536-7.936 37.376-5.12 11.264-12.864 22.080-22.848 31.936l-20.096 20.224-1.152 11.392c-1.152 12.224-3.648 27.648-7.552 48.256-9.344 49.344-53.952 125.76-105.408 161.088-56.64 39.104-131.264 43.136-152.768 43.456-0.128 0-0.192 0-0.32 0-29.056 0-94.528-4.288-151.616-43.456-53.952-36.8-99.904-114.112-104.96-158.592-3.264-27.456-4.672-48-4.288-62.848l0.64-25.28-31.36-11.2-6.848-29.184-5.504-8.64-34.816 1.536 30.656-9.216-0.512-9.536c0.96-4.736 2.816-11.392 6.016-19.456 1.536-3.968 3.52-8.192 5.824-12.736l10.24-20.032-15.424-16.512c-9.024-9.536-18.432-20.672-27.008-33.28-30.4-44.544-61.312-123.456-57.344-162.304 0.704-6.592 1.344-12.032 1.984-16.576 10.112 11.456 21.248 26.56 27.712 36.8l34.432 54.464 22.656-60.352c0.128-0.448 16.896-44.8 44.224-82.24l21.056-28.8-27.072-15.552 10.112-2.048-42.368-42.176c-1.792-1.92-5.76-8.128-4.992-11.776 0.896-3.84 8.384-12.864 31.36-22.464 65.984-27.328 152.64-25.728 197.504 0.512l9.792 5.76 11.2-1.728c20.992-3.2 36.288-3.968 46.080-3.968h6.72c9.728 0 25.088 0.832 46.080 3.968l11.2 1.728z" />
<glyph unicode="&#xe61a;" glyph-name="uniE61A" d="M896 0h-768v896h768v-896zM192 64h640v768h-640v-768zM192 704h640v-64h-640v64zM256 448h512v-64h-512v64zM256 256h512v-64h-512v64z" />
<glyph unicode="&#xe61b;" glyph-name="uniE61B" d="M518.784 423.168c72.512 45.184 121.216 125.056 121.216 216.832 0 141.376-114.624 256-256 256s-256-114.624-256-256c0-91.776 48.704-171.648 121.216-216.832-145.472-54.592-249.216-194.624-249.216-359.168v-64h64v64c0 176.768 143.232 320 320 320s320-143.232 320-320v-64h64v64c0 164.544-103.744 304.576-249.216 359.168zM192 640c0 105.984 86.016 192 192 192s192-86.016 192-192-86.016-192-192-192-192 86.016-192 192zM774.784 423.168c72.512 45.184 121.216 125.056 121.216 216.832 0 141.376-114.624 256-256 256v-64c105.984 0 192-86.016 192-192s-86.016-192-192-192v-64c176.768 0 320-143.232 320-320v-64h64v64c0 164.544-103.744 304.576-249.216 359.168z" />
<glyph unicode="&#xe61c;" glyph-name="uniE61C" d="M256-53.504v181.504h-160c-25.6 0-49.728 9.984-67.904 28.096s-28.096 42.304-28.096 67.904v384c0 25.6 9.984 49.728 28.096 67.904s42.304 28.096 67.904 28.096h640c25.6 0 49.728-9.984 67.904-28.096s28.096-42.304 28.096-67.904v-384c0-25.6-9.984-49.728-28.096-67.904s-42.304-28.096-67.904-28.096h-141.568l-338.432-181.504zM96 640c-8.576 0-16.576-3.328-22.656-9.344s-9.344-14.080-9.344-22.656v-384c0-8.576 3.328-16.576 9.344-22.656s14.080-9.344 22.656-9.344h224v-138.496l258.304 138.496h157.696c8.576 0 16.576 3.328 22.656 9.344s9.344 14.080 9.344 22.656v384c0 8.576-3.328 16.576-9.344 22.656s-14.080 9.344-22.656 9.344h-640zM928 320h-32v64h32c8.576 0 16.576 3.328 22.656 9.344s9.344 14.080 9.344 22.656v384c0 8.576-3.328 16.576-9.344 22.656s-14.080 9.344-22.656 9.344h-640c-8.576 0-16.576-3.328-22.656-9.344s-9.344-14.080-9.344-22.656v-32h-64v32c0 25.6 9.984 49.728 28.096 67.904s42.304 28.096 67.904 28.096h640c25.6 0 49.728-9.984 67.904-28.096s28.096-42.304 28.096-67.904v-384c0-25.6-9.984-49.728-28.096-67.904s-42.304-28.096-67.904-28.096z" />
<glyph unicode="&#xe61d;" glyph-name="uniE61D" d="M512-51.2l-25.024 31.168c-13.312 16.64-326.976 410.176-326.976 596.032 0 194.048 157.952 352 352 352s352-157.952 352-352c0-185.856-313.664-579.392-326.976-595.968l-25.024-31.232zM512 864c-158.784 0-288-129.216-288-288 0-124.224 189.184-395.712 288-524.096 98.816 128.384 288 399.936 288 524.096 0 158.784-129.216 288-288 288zM512 352c-123.52 0-224 100.48-224 224s100.48 224 224 224 224-100.48 224-224-100.48-224-224-224zM512 736c-88.256 0-160-71.744-160-160s71.744-160 160-160 160 71.744 160 160-71.744 160-160 160z" />
<glyph unicode="&#xe61e;" glyph-name="uniE61E" d="M931.904 675.904c-18.176 18.112-42.304 28.096-67.904 28.096h-96v32c0 25.6-9.984 49.728-28.096 67.904s-42.304 28.096-67.904 28.096h-320c-25.6 0-49.728-9.984-67.904-28.096s-28.096-42.304-28.096-67.904v-32h-96c-25.6 0-49.728-9.984-67.904-28.096s-28.096-42.304-28.096-67.904v-448c0-25.6 9.984-49.728 28.096-67.904s42.304-28.096 67.904-28.096h704c25.6 0 49.728 9.984 67.904 28.096s28.096 42.304 28.096 67.904v448c0 25.6-9.984 49.728-28.096 67.904zM320 736c0 8.576 3.328 16.576 9.344 22.656s14.080 9.344 22.656 9.344h320c8.576 0 16.576-3.328 22.656-9.344s9.344-14.080 9.344-22.656v-32h-384v32zM896 160c0-8.576-3.328-16.576-9.344-22.656s-14.080-9.344-22.656-9.344h-704c-8.576 0-16.576 3.328-22.656 9.344s-9.344 14.080-9.344 22.656v224h256c0-17.088 6.656-33.216 18.752-45.248s28.16-18.752 45.248-18.752h128c17.088 0 33.216 6.656 45.248 18.752s18.752 28.16 18.752 45.248h256v-224zM575.936 384h-127.936v64h128l-0.064-64zM640 448c0 17.088-6.656 33.216-18.752 45.248s-28.16 18.752-45.248 18.752h-128c-17.088 0-33.216-6.656-45.248-18.752s-18.752-28.16-18.752-45.248h-256v160c0 8.576 3.328 16.576 9.344 22.656s14.080 9.344 22.656 9.344h704c8.576 0 16.576-3.328 22.656-9.344s9.344-14.080 9.344-22.656v-160h-256z" />
<glyph unicode="&#xe61f;" glyph-name="uniE61F" d="M466.752 312.256l-45.248 45.248c-99.84 99.84-99.84 262.208 0 361.984l90.496 90.56c99.776 99.776 262.208 99.776 362.048 0 99.84-99.904 99.84-262.272 0-362.048l-45.248-45.248-45.248 45.248 45.248 45.248c74.816 74.88 74.816 196.672 0 271.552-74.88 74.88-196.672 74.88-271.552 0l-90.496-90.56c-74.88-74.88-74.88-196.608 0-271.488l45.248-45.248-45.248-45.248zM331.008 11.072c-65.536 0-131.136 25.024-181.056 74.88-99.84 99.904-99.84 262.272 0 362.048l45.312 45.248 45.248-45.248-45.312-45.248c-74.816-74.88-74.816-196.672 0-271.552 74.88-74.88 196.672-74.88 271.552 0l90.496 90.56c36.224 36.224 56.256 84.416 56.256 135.744s-20.032 99.52-56.256 135.744l-45.248 45.248 45.248 45.248 45.248-45.248c48.384-48.32 75.008-112.64 75.008-180.992s-26.624-132.672-75.008-180.992l-90.496-90.56c-49.856-49.92-115.456-74.816-180.992-74.88z" />
<glyph unicode="&#xe620;" glyph-name="uniE620" d="M845.12-57.728l-333.12 175.104-333.12-175.104 63.616 370.88-269.504 262.656 372.416 54.208 166.592 337.536 166.592-337.536 372.416-54.208-269.504-262.656 63.616-370.88zM512 198.528l237.696-124.864-45.376 264.64 192.32 187.52-265.792 38.464-118.848 240.896-118.848-240.896-265.792-38.528 192.32-187.52-45.376-264.64 237.696 124.928z" />
<glyph unicode="&#xe621;" glyph-name="uniE621" d="M512 213.888l-468.8 401.792 41.6 48.64 427.2-366.208 427.2 366.208 41.6-48.64z" />
<glyph unicode="&#xe622;" glyph-name="uniE622" d="M256 288v64c128 0 208 86.144 208 192s-78.144 192-184 192-188.032-86.144-188.032-192c0-28.8 8.192-56.512 20.416-82.24l-56.704-27.52c-16.384 34.432-24.192 71.36-24.192 109.76 0 141.184 115.072 256 256.256 256s240.128-114.816 240.128-256-79.872-256-271.872-256zM384 544c0-53.020-42.98-96-96-96s-96 42.98-96 96c0 53.020 42.98 96 96 96s96-42.98 96-96zM96-64h-64c0 529.024 205.12 603.456 213.888 606.4l20.224-60.736c-1.088-0.448-170.112-70.080-170.112-545.664zM1013.888 353.6c-208.384 69.504-244.096 303.872-245.568 313.856l63.36 9.088c0.32-1.984 32-205.376 202.432-262.208l-20.224-60.736zM832 672c0-17.674-14.326-32-32-32s-32 14.326-32 32c0 17.674 14.326 32 32 32s32-14.326 32-32zM768 480c-64 0-176 86.144-176 192s94.144 192 200 192 195.968-86.144 195.968-192c0-41.984-11.328-81.792-36.416-115.264l-50.112 38.528c16.768 22.272 26.048 48.768 26.048 76.736 0 70.592-57.216 128-127.744 128s-143.872-57.408-143.872-128 48.128-128 112.128-128v-64z" />
<glyph unicode="&#xe623;" glyph-name="uniE623" d="M379.26 770.37c4.286-182.234 70.92-265.48 132.74-265.48s128.456 83.246 132.74 265.48h-265.48zM265.48 694.52c9.52-126.824 126.066-164.22 148.024-170.288-28.938 37.85-51.96 94.854-63.64 170.288h-84.384zM37.926 960v-1024l474.074 151.704 474.074-151.704v1024h-948.148zM720.592 277.332h-417.186v37.926h417.186v-37.926zM796.444 713.48c0-183.334-173.89-226.568-175.558-226.986l-13.084 34.284c-23.096-28.938-49.722-45.738-76.838-51.276v-78.392h113.778v-37.926h-265.48v37.926h113.778v78.394c-27.154 5.536-53.74 22.338-76.838 51.276l-13.084-34.284c-1.668 0.416-175.558 43.654-175.558 226.986v18.962h117.608c-2.312 23.818-3.832 48.812-3.832 75.852h341.332c0-27.042-1.518-52.034-3.794-75.852h117.57v-18.962zM610.494 524.23c21.958 6.068 138.504 43.462 148.024 170.288h-84.384c-11.682-75.434-34.702-132.438-63.64-170.288z" />
<glyph unicode="&#xe624;" glyph-name="uniE624" horiz-adv-x="960" d="M296.256 352.96c-2.816 0.704-296.256 73.664-296.256 383.040v32h192v-64h-128c17.344-231.616 246.784-286.656 255.872-289.024l-23.616-62.016zM663.744 352.96c2.816 0.704 296.256 73.664 296.256 383.040v32h-192v-64h128c-17.344-231.616-246.784-286.656-255.872-289.024l23.616-62.016zM448 320h64v-192h-64v192zM256 192h448v-64h-448v64zM128 64h704v-64h-704v64zM192 896c0-384 144.64-576 288-576s288 192 288 576h-576zM480 384c-104.32 0-216.768 140.48-224 448h448c-7.232-307.52-119.68-448-224-448z" />
<glyph unicode="&#xe625;" glyph-name="uniE625" d="M1024 0l-512 128-512-128v960h1024z" />
<glyph unicode="&#xe626;" glyph-name="uniE626" d="M576 266.24v245.76h-192v-17.472c64 1.792 64-13.76 64-46.72v-181.504c0-33.024 0-48.64-64-46.72v-27.584h256v27.52c-64-1.92-64 13.76-64 46.72zM576 640c0-35.346-28.654-64-64-64s-64 28.654-64 64c0 35.346 28.654 64 64 64s64-28.654 64-64z" />
<glyph unicode="&#xe627;" glyph-name="uniE627" d="M512 896c-247.424 0-448-200.576-448-448 0-138.432 62.848-262.208 161.472-344.384l-33.472-167.616 147.712 98.432c53.056-22.144 111.232-34.432 172.288-34.432 247.424 0 448 200.576 448 448s-200.576 448-448 448z" />
<glyph unicode="&#xe628;" glyph-name="uniE628" d="M320 624c0-26.51-21.49-48-48-48s-48 21.49-48 48c0 26.51 21.49 48 48 48s48-21.49 48-48zM576 624c0-26.51-21.49-48-48-48s-48 21.49-48 48c0 26.51 21.49 48 48 48s48-21.49 48-48zM704 496c123.52 0 224-86.144 224-192 0-54.656-27.712-107.136-76.032-143.744l-27.584-20.928-1.088 0.576-26.56-10.432c-29.44-11.584-60.672-17.408-92.8-17.408-123.52 0-224 86.144-224 192s100.544 191.936 224.064 191.936zM704 560c-159.040 0-288-114.624-288-256s128.96-256 288-256c41.344 0 80.64 7.872 116.224 21.888l107.776-53.888-37.312 93.248c61.952 46.976 101.312 116.736 101.312 194.752 0 141.376-128.96 256-288 256v0zM640 384c0-17.674-14.326-32-32-32s-32 14.326-32 32c0 17.674 14.326 32 32 32s32-14.326 32-32zM832 384c0-17.674-14.326-32-32-32s-32 14.326-32 32c0 17.674 14.326 32 32 32s32-14.326 32-32zM448 293.184c-20.672-3.392-42.048-5.184-64-5.184-41.856 0-83.136 6.656-122.56 19.84l-27.968 9.344-7.488-4.544 1.536 3.968-44.096 28.672c-75.84 49.216-119.424 121.664-119.424 198.72 0 141.184 143.552 256 320 256s320-114.816 320-256c0-10.944-2.368-21.376-4.032-32h66.112c1.216 10.496 1.92 21.184 1.92 32 0 176.768-171.968 320-384 320s-384-143.232-384-320c0-102.72 58.304-193.856 148.608-252.416l-52.608-131.584 145.216 87.104c44.16-14.72 92.288-23.104 142.784-23.104 21.888 0 43.136 1.856 64 4.8v64.384z" />
<glyph unicode="&#xe629;" glyph-name="uniE629" d="M867.904 483.904c-18.176 18.112-42.304 28.096-67.904 28.096h-32v113.024c0 142.272-114.816 257.984-256 257.984s-256-115.776-256-257.984v-113.024h-32c-25.6 0-49.728-9.984-67.904-28.096s-28.096-42.304-28.096-67.904v-320c0-25.6 9.984-49.728 28.096-67.904s42.304-28.096 67.904-28.096h576c25.6 0 49.728 9.984 67.904 28.096s28.096 42.304 28.096 67.904v320c0 25.6-9.984 49.728-28.096 67.904zM320 625.024c0 107.008 86.144 193.984 192 193.984s192-86.976 192-193.984v-113.024h-384v113.024zM832 96c0-8.576-3.328-16.576-9.344-22.656s-14.080-9.344-22.656-9.344h-576c-8.576 0-16.576 3.328-22.656 9.344s-9.344 14.080-9.344 22.656v320c0 8.576 3.328 16.576 9.344 22.656s14.080 9.344 22.656 9.344h576c8.576 0 16.576-3.328 22.656-9.344s9.344-14.080 9.344-22.656v-320z" />
<glyph unicode="&#xe62a;" glyph-name="uniE62A" d="M1024-64l-512 512-512-512z" />
<glyph unicode="&#xe62b;" glyph-name="uniE62B" d="M960 128c-32.768 0-65.472 12.48-90.496 37.504s-37.504 57.728-37.504 90.496v320c0 155.264-110.656 284.48-257.28 313.664 0.192 2.24 1.28 4.096 1.28 6.336 0 35.392-28.608 64-64 64s-64-28.608-64-64c0-2.24 1.088-4.096 1.28-6.336-146.624-29.184-257.28-158.4-257.28-313.664v-320c0-32.768-12.48-65.472-37.504-90.496s-57.728-37.504-90.496-37.504v-64h275.008c30.784-61.248 96.448-128 172.992-128s142.208 66.752 172.992 128h275.008v64zM512 0c-39.040 0-74.944 31.296-98.752 64h197.504c-23.808-32.704-59.712-64-98.752-64zM704 128h-512c31.552 35.264 64 80.32 64 128v320c0 121.664 86.528 227.2 205.76 250.944l50.24 9.984 50.24-9.984c119.232-23.744 205.76-129.28 205.76-250.944v-320c0-47.68 32.448-92.736 64-128h-128z" />
<glyph unicode="&#xe62c;" glyph-name="uniE62C" d="M128 832h640v-256h64v320h-768v-896h320v64h-256zM982.656 425.344l-45.312 45.312-201.344-201.408-201.344 201.408-45.312-45.312 201.408-201.344-201.408-201.344 45.312-45.312 201.344 201.408 201.344-201.408 45.312 45.312-201.408 201.344z" />
<glyph unicode="&#xe62d;" glyph-name="uniE62D" d="M512-9.92l-20.672 17.472c-43.776 36.992-427.328 366.528-427.328 536.448 0 141.184 114.816 256 256 256 80.128 0 147.392-48.704 192-104.128 44.608 55.424 111.872 104.128 192 104.128 141.184 0 256-114.816 256-256 0-169.92-383.552-499.456-427.328-536.448l-20.672-17.472zM320 736c-105.856 0-192-86.144-192-192 0-101.12 227.328-333.952 384-469.888 156.672 135.936 384 368.768 384 469.888 0 105.856-86.144 192-192 192-72.128 0-133.696-60.48-164.48-112.384l-27.52-46.272-27.52 46.272c-30.784 51.904-92.352 112.384-164.48 112.384z" />
<glyph unicode="&#xe62e;" glyph-name="uniE62E" d="M662.656 553.344l-45.312 45.312-105.344-105.408-105.344 105.408-45.312-45.312 105.408-105.344-105.408-105.344 45.312-45.312 105.344 105.408 105.344-105.408 45.312 45.312-105.408 105.344zM512 960c-78.784 0-241.92-180.032-438.848-219.456 0-219.392 219.392-804.544 438.848-804.544s438.848 585.152 438.848 804.544c-196.928 39.424-360.064 219.456-438.848 219.456zM512 0c-142.656 0-345.152 451.968-371.968 691.84 101.696 32 190.080 91.52 263.232 140.672 38.656 26.048 91.648 61.696 109.44 63.488 16.384-1.792 69.376-37.44 108.032-63.488 73.216-49.216 161.536-108.672 263.232-140.672-26.816-239.872-229.312-691.84-371.968-691.84z" />
<glyph unicode="&#xe62f;" glyph-name="uniE62F" d="M735.424 186.496l20.8-121.216-244.224 128.32-244.224-128.32 46.592 271.936-197.632 192.576 273.152 39.68 122.112 247.488 122.112-247.488 273.152-39.68-185.6-180.864 44.672-45.888 278.4 271.424-368.128 53.504-164.608 333.568-164.608-333.568-368.128-53.504 266.368-259.648-62.912-366.592 329.28 173.12 329.28-173.12-42.688 249.152zM384 512v-64h178.752l-192-192h333.248v64h-178.752l192 192z" />
<glyph unicode="&#xe630;" glyph-name="uniE630" d="M692.992 675.968c-16.704-194.688-25.024-295.68-25.024-302.976 0-71.68 20.48-107.52 61.504-107.52 38.016 0 69.44 20.736 94.272 62.272s37.248 95.552 37.248 162.24c0 97.344-30.784 176.832-92.48 238.528s-147.008 92.48-256 92.48c-106.304 0-194.304-37.184-264-111.488s-104.512-167.296-104.512-278.976c0-109.312 32.704-197.312 97.984-264s154.304-99.968 267.008-99.968c87.296 0 163.008 14.784 227.008 44.48v-70.976c-62.336-26.752-140.288-40.064-233.984-40.064-131.008 0-236.736 39.424-317.248 118.272s-120.768 181.888-120.768 309.248c0 131.712 42.24 241.088 126.72 328.256s192.768 130.752 324.736 130.752c123.328 0 225.088-36.224 305.28-108.736s120.256-166.912 120.256-283.264c0-86.656-21.504-157.44-64.512-212.224s-95.488-82.24-157.504-82.24c-78.976 0-118.784 41.792-119.488 125.504h-2.496c-26.688-83.712-77.696-125.504-153.024-125.504-49.024 0-88.768 17.984-119.232 54.016s-45.76 84.928-45.76 146.944c0 81.344 20.992 148.8 62.976 202.496s96.192 80.512 162.496 80.512c25.984 0 49.088-6.592 69.248-19.776s32.96-29.568 38.272-49.28h1.984c0.384 1.344 2.24 21.696 5.568 60.992h73.472zM360.512 400.512c0-40.32 8.576-72.768 25.728-97.28s41.536-36.736 73.28-36.736c43.712 0 78.080 21.824 103.232 65.472s37.76 101.312 37.76 172.992c0 75.328-31.68 113.024-94.976 113.024-43.008 0-77.952-20.992-104.768-62.976s-40.256-93.504-40.256-154.496z" />
<glyph unicode="&#xe631;" glyph-name="uniE631" d="M960 0h-896v704h256v-64h-192v-576h768v640h64zM544 213.312c-88.256 0-160 71.744-160 160v266.688c0 123.52 100.48 224 224 224s224-100.48 224-224h-64c0 88.256-71.744 160-160 160s-160-71.744-160-160v-266.688c0-52.928 43.072-96 96-96s96 43.072 96 96v202.688c0 17.6-14.4 32-32 32s-32-14.4-32-32v-192h-64v192c0 52.928 43.072 96 96 96s96-43.072 96-96v-202.688c0-88.256-71.744-160-160-160z" />
<glyph unicode="&#xe632;" glyph-name="uniE632" horiz-adv-x="960" d="M640 768v128h-320v-128h-256v-64h64v-704h704v704h64v64h-256zM384 832h192v-64h-192v64zM768 64h-576v640h576v-640zM320 576h64v-384h-64v384zM448 576h64v-384h-64v384zM576 576h64v-384h-64v384z" />
<glyph unicode="&#xe633;" glyph-name="uniE633" d="M256-53.504v181.504h-160c-25.6 0-49.728 9.984-67.904 28.096s-28.096 42.304-28.096 67.904v576c0 25.6 9.984 49.728 28.096 67.904s42.304 28.096 67.904 28.096h640c25.6 0 49.728-25.984 67.904-44.096s28.096-19.904 28.096-83.904h-64c0 64-3.328 32.576-9.344 38.656s-14.080 25.344-22.656 25.344h-640c-8.576 0-16.576-3.328-22.656-9.344s-9.344-14.080-9.344-22.656v-576c0-8.576 3.328-16.576 9.344-22.656s14.080-9.344 22.656-9.344h224v-138.496l258.304 138.496h157.696c8.576 0 16.576 3.328 22.656 9.344s9.344 14.080 9.344 22.656v96h64v-96c0-25.6-9.984-49.728-28.096-67.904s-42.304-28.096-67.904-28.096h-141.568l-338.432-181.504zM608 306.752l-246.656 246.592 45.312 45.312 201.344-201.408 353.344 353.408 45.312-45.312z" />
<glyph unicode="&#xe634;" glyph-name="uniE634" d="M512 664.32l468.8-401.792-41.6-48.64-427.2 366.144-427.2-366.144-41.6 48.64z" />
<glyph unicode="&#xe635;" glyph-name="uniE635" d="M832 512h-256v256h-128v-256h-256v-128h256v-256h128v256h256z" />
<glyph unicode="&#xe636;" glyph-name="uniE636" d="M416 197.504l-205.248 205.248 90.496 90.496 114.752-114.752 306.752 306.752 90.496-90.496z" />
<glyph unicode="&#xe637;" glyph-name="uniE637" horiz-adv-x="960" d="M576 832v-256h-256v-256h-256v-320h832v832h-320zM320 64h-192v192h192v-192zM576 64h-192v448h192v-448zM832 64h-192v704h192v-704z" />
<glyph unicode="&#xe638;" glyph-name="uniE638" d="M775.744 630.336l-263.744 329.664-263.744-329.664-229.184 127.296 146.56-757.632h692.736l146.56 757.632-229.184-127.296zM263.744 547.2l248.256 310.272 248.256-310.336 154.816 83.968-71.936-375.104h-662.272l-71.936 375.104 154.816-83.904zM218.368 64l-25.024 128h637.248l-25.024-128h-587.2z" />
<glyph unicode="&#xe639;" glyph-name="uniE639" d="M704 832v-64h32l-160-320-160 320h32v64h-384v-64h64l384-768 384 768h64v64z" />
<glyph unicode="&#xe63a;" glyph-name="uniE63A" d="M793.664 416.384c22.656-15.936 41.088-35.904 55.232-59.904s21.248-52.224 21.248-84.672c0-38.912-8.064-71.872-24.192-98.752s-39.232-48.064-69.312-63.552c-31.872-16.64-68.608-28.352-110.272-35.2-41.472-6.848-90.496-10.304-146.816-10.304h-391.552v42.24c11.008 1.024 42.304 2.688 58.944 4.864 16.704 2.112 28.352 4.608 35.072 7.488 13.12 5.504 22.080 12.544 26.88 21.376 4.736 8.896 7.104 20.416 7.104 34.432v541.248c0 12.992-1.92 23.808-5.824 32.512-3.968 8.64-13.312 16.192-28.16 22.656-10.944 4.672-23.68 8.576-38.272 11.712-14.464 2.944-44.736 5.44-55.744 7.232v42.24h409.6c103.040 0 177.408-14.528 223.104-43.264 45.696-28.928 68.48-71.488 68.48-127.744 0-25.984-5.12-48.896-15.36-68.48-10.24-19.776-25.024-36.736-44.096-51.136-17.344-13.376-38.016-24.96-62.144-34.624-24.128-9.728-49.92-17.92-77.568-24.448v-10.24c27.648-2.88 56.32-9.088 86.080-18.688 29.76-9.472 55.68-21.888 77.568-36.992zM640 650.816c0 41.792-11.52 74.368-34.688 97.728-23.104 23.424-57.792 35.072-104.064 35.072-6.656 0-15.232-0.256-25.856-0.832-10.56-0.448-19.712-0.896-27.392-1.28v-279.424h27.136c56.384 0 97.92 13.376 124.736 40.128 26.752 26.752 40.128 62.912 40.128 108.608zM680.704 288.768c0 52.48-15.552 92.736-46.72 120.832-31.168 28.032-75.968 42.048-134.4 42.048-6.72 0-15.68-0.32-26.88-0.832-11.136-0.576-19.392-1.024-24.704-1.344v-276.16c3.2-13.12 13.12-24.256 29.76-33.28 16.704-9.088 36.864-13.568 60.544-13.568 42.176 0 76.416 14.144 102.784 42.56 26.432 28.416 39.616 68.288 39.616 119.744z" />
<glyph unicode="&#xe63b;" glyph-name="uniE63B" d="M768 817.856l-8-35.136c-11.008-0.32-25.344-1.92-43.008-4.736-17.728-2.816-30.848-5.504-39.36-8-14.912-4.544-25.536-11.584-31.872-21.248-6.4-9.472-11.008-20.032-13.76-31.488l-127.872-550.784c-0.768-2.432-1.28-5.184-1.6-8.448-0.384-3.136-0.576-6.016-0.576-8.512 0-8.128 1.792-14.976 5.312-20.672 3.584-5.696 9.92-10.624 19.136-14.848 5.376-2.496 17.024-5.376 35.136-8.768 17.984-3.392 31.488-5.44 40.384-6.144l-8.064-35.072h-369.216l8 35.072c9.856 0.704 24.064 1.728 42.496 3.2 18.368 1.408 31.488 3.584 39.232 6.4 13.888 4.928 24.256 11.776 31.36 20.416s11.904 19.264 14.4 31.616l127.424 551.424c0.704 3.2 1.28 6.4 1.536 9.536 0.384 3.2 0.576 6.4 0.576 9.536 0 7.040-1.472 13.248-4.48 18.624-3.072 5.312-9.28 10.112-18.88 14.336s-22.592 8.256-39.040 11.968c-16.448 3.776-28.608 5.952-36.416 6.592l8 35.136h369.152z" />
<glyph unicode="&#xe63c;" glyph-name="uniE63C" d="M873.088 796.8c-8.448-0.896-20.608-2.816-36.544-5.952-15.872-3.008-29.248-8.384-40-15.936-11.136-7.296-18.88-20.416-23.36-39.36-4.544-18.944-6.784-47.36-6.784-85.312v-230.976c0-67.968-23.040-122.624-69.12-164.032s-107.072-62.144-182.848-62.144c-88.384 0-156.8 19.968-205.184 59.968s-72.768 95.616-72.768 167.040v317.632c0 10.176-1.984 18.944-5.888 26.24-3.968 7.296-11.52 13.888-22.592 19.712-7.552 3.84-16.96 6.848-28.032 9.216s-20.032 3.904-27.008 4.8v33.28h325.504v-33.28c-9.344-0.576-18.816-1.664-28.48-3.328-9.6-1.536-19.328-3.968-29.312-7.168-11.072-3.52-18.56-9.344-22.272-17.536s-5.696-17.344-5.696-27.52v-313.28c0-61.568 13.568-106.304 40.64-134.336s66.432-41.984 117.952-41.984c50.752 0 90.496 15.424 119.296 46.4s43.264 76.416 43.264 136.512v210.432c0 37.312-2.56 65.28-7.68 83.776-5.056 18.56-12.864 31.872-23.36 40.064-7.616 6.464-20.736 12.224-39.616 17.472-18.752 5.248-32 8.448-39.552 9.6v34.112h269.504v-34.112zM192 128h640v-64h-640v64z" />
<glyph unicode="&#xe63d;" glyph-name="uniE63D" d="M320 192h640v-128h-640v128zM320 512h640v-128h-640v128zM320 832h640v-128h-640v128zM192 768c0-35.346-28.654-64-64-64s-64 28.654-64 64c0 35.346 28.654 64 64 64s64-28.654 64-64zM192 448c0-35.346-28.654-64-64-64s-64 28.654-64 64c0 35.346 28.654 64 64 64s64-28.654 64-64zM192 128c0-35.346-28.654-64-64-64s-64 28.654-64 64c0 35.346 28.654 64 64 64s64-28.654 64-64z" />
<glyph unicode="&#xe63e;" glyph-name="uniE63E" d="M320 192h640v-128h-640v128zM320 512h640v-128h-640v128zM320 832h640v-128h-640v128zM64 828.992v24.256c11.264 0.512 19.072 1.28 23.552 2.24 7.104 1.536 21.44 4.736 25.856 9.472 3.136 3.264 5.44 7.552 6.976 12.992 0.96 3.328 1.408 5.76 1.408 7.296h29.76v-181.248h-36.48v124.992h-51.072zM76.48 423.616c5.056 12.032 17.088 24.896 35.968 38.4 16.448 11.776 27.072 20.16 31.872 25.28 7.488 7.872 11.2 16.512 11.2 25.984 0 7.68-2.112 14.080-6.4 19.136s-10.304 7.616-18.24 7.616c-10.816 0-18.176-4.032-22.144-12.096-2.24-4.736-3.52-12.096-3.968-22.336h-34.624c0.576 15.424 3.392 27.904 8.384 37.376 9.472 18.112 26.432 27.136 50.688 27.136 19.2 0 34.432-5.312 45.824-15.936 11.264-10.624 16.96-24.704 16.96-42.176 0-13.44-3.968-25.344-12.032-35.776-5.312-6.912-13.888-14.592-25.92-23.104l-14.272-10.112c-8.96-6.336-14.976-10.944-18.304-13.76s-6.080-6.144-8.32-9.856h79.104v-31.36h-124.16c0.32 12.992 3.136 24.832 8.384 35.584zM100.8 124.096c0-7.232 1.216-13.248 3.52-17.984 4.288-8.768 12.16-13.12 23.552-13.12 6.976 0 13.056 2.368 18.24 7.168s7.808 11.712 7.808 20.672c0 11.968-4.8 19.904-14.464 23.872-5.504 2.24-14.144 3.392-25.92 3.392v25.472c11.584 0.192 19.648 1.344 24.192 3.392 7.872 3.52 11.84 10.56 11.84 21.248 0 6.912-1.984 12.544-6.080 16.896-3.968 4.288-9.664 6.528-17.024 6.528-8.384 0-14.592-2.688-18.496-8s-5.888-12.416-5.696-21.376h-33.28c0.32 9.024 1.856 17.536 4.608 25.6 2.944 7.040 7.488 13.632 13.76 19.648 4.608 4.224 10.176 7.488 16.576 9.728 6.464 2.24 14.336 3.392 23.616 3.392 17.344 0 31.232-4.48 41.856-13.44s15.936-20.992 15.936-36.032c0-10.688-3.2-19.712-9.472-27.008-3.968-4.544-8.192-7.68-12.48-9.344 3.264 0 7.936-2.816 14.016-8.384 9.088-8.448 13.632-19.968 13.632-34.496 0-15.296-5.312-28.8-15.936-40.448s-26.304-17.472-47.104-17.472c-25.6 0-43.456 8.384-53.44 25.152-5.248 8.96-8.192 20.544-8.768 35.008h35.008z" />
<glyph unicode="&#xe63f;" glyph-name="uniE63F" d="M64 832v-768h896v768h-896zM896 128h-768v640h768v-640zM448 256l192 256 192-192v-128h-640v64l128 128zM384 608c0-53.020-42.98-96-96-96s-96 42.98-96 96c0 53.020 42.98 96 96 96s96-42.98 96-96z" />
<glyph unicode="&#xe640;" glyph-name="uniE640" d="M64 832v-768h896v768h-896zM896 128h-768v640h768v-640zM384 256v384l320-192z" />
<glyph unicode="&#xe641;" glyph-name="uniE641" d="M448 273.92c0-38.912-15.104-72.96-45.376-102.208-30.208-29.056-65.856-43.712-106.944-43.712-64.512 0-114.048 22.272-148.672 66.624-34.624 44.288-51.968 105.792-51.968 184.064 0 72.96 29.76 146.56 89.344 220.736 59.584 74.112 131.328 130.304 215.232 168.576l38.656-64.768c-66.368-33.344-118.464-72.32-156.032-116.672-37.632-44.288-59.392-98.112-65.28-161.344h49.344c36.416 0 66.112-4.224 89.088-12.672 22.848-8.512 41.344-20.352 55.488-35.52 13.504-14.656 22.976-30.72 28.608-48.448 5.696-17.6 8.512-35.84 8.512-54.656zM928.96 273.92c0-38.912-15.104-72.96-45.376-102.208-30.208-29.056-65.92-43.712-106.944-43.712-64.512 0-114.048 22.272-148.672 66.624-34.624 44.288-51.968 105.792-51.968 184.064 0 72.96 29.76 146.56 89.344 220.736 59.52 74.112 131.264 130.304 215.232 168.576l38.656-64.768c-66.368-33.344-118.464-72.32-156.032-116.672-37.632-44.288-59.392-98.112-65.28-161.344h49.344c36.416 0 66.112-4.224 89.088-12.672 22.848-8.512 41.344-20.352 55.488-35.52 13.504-14.656 22.976-30.72 28.608-48.448 5.696-17.6 8.512-35.84 8.512-54.656z" />
<glyph unicode="&#xe642;" glyph-name="uniE642" d="M352 88l-288 360 288 360 99.968-80-224.064-280 224.064-280zM672 88l-99.968 80 224.064 280-224.064 280 99.968 80 288-360z" />
<glyph unicode="&#xe643;" glyph-name="uniE643" d="M512 768c-282.752 0-512-320-512-320s229.248-320 512-320 512 320 512 320-229.248 320-512 320zM512 192c-141.312 0-256 114.688-256 256s114.688 256 256 256 256-114.688 256-256-114.688-256-256-256zM640 448c0-70.692-57.308-128-128-128s-128 57.308-128 128c0 70.692 57.308 128 128 128s128-57.308 128-128z" />
<glyph unicode="&#xe644;" glyph-name="uniE644" d="M738.496 660.608c14.336-69.696 1.984-131.136-36.928-184.384s-111.040-69.568-189.568-92.224v-64h-64l0.896 163.904c49.408 14.464 85.504 38.464 108.288 71.936s29.248 73.92 19.52 121.408c-7.808 37.824-24 66.048-48.64 84.672-24.64 18.56-53.696 24.448-87.36 17.472-14.208-2.88-26.56-6.976-37.056-12.224-10.56-5.248-20.416-11.968-29.504-20.416 5.76-10.304 12.8-23.808 21.056-40.384 8.32-16.576 14.016-32.256 17.024-47.168 5.056-24.32 1.024-44.736-12.032-61.376-13.056-16.576-33.536-27.776-61.696-33.536-26.368-5.44-48.832-1.344-67.328 12.16-18.496 13.568-30.208 32.512-35.2 56.704-8.192 39.936 7.552 78.464 47.232 115.52 39.744 37.056 91.712 62.272 155.84 75.456 76.032 15.616 141.504 8.512 196.736-21.376 55.104-29.888 89.344-77.248 102.72-142.144zM576 160c0-53.020-42.98-96-96-96s-96 42.98-96 96c0 53.020 42.98 96 96 96s96-42.98 96-96z" />
<glyph unicode="&#xe645;" glyph-name="uniE645" d="M896 64h-340.096v38.080c7.36 0.704 18.112 1.728 32.32 3.008 14.208 1.344 24 3.328 29.312 5.888 10.944 4.864 18.496 11.392 22.656 19.328s6.272 18.112 6.272 30.592l-6.464 287.104h-256l-6.4-281.728c0-11.2 2.112-21.12 6.528-29.888 4.224-8.896 11.584-15.616 21.888-20.544 5.696-2.624 15.232-5.376 28.864-8.256 13.568-3.008 24.704-4.8 33.28-5.504v-38.080h-340.16v38.080c7.36 0.448 18.24 1.408 32.64 3.328 14.336 1.664 24.768 3.904 31.232 6.528 10.624 4.288 17.984 10.688 22.144 19.328 4.16 8.768 6.272 18.88 6.272 30.656v564.928c0 11.52-1.856 20.992-5.632 28.8-3.648 7.872-11.264 14.784-22.784 20.672-8.64 4.16-19.84 8.064-33.664 11.52-13.952 3.328-23.936 5.44-30.208 6.080v38.080h340.096v-38.080c-9.088-0.64-20.16-2.368-32.768-4.992-12.8-2.56-22.528-4.928-29.312-7.296-11.456-4.16-19.136-10.944-22.848-20.224-3.648-9.344-5.568-19.136-5.568-29.568l6.4-219.84h256l6.4 214.848c0 11.52-1.984 20.992-5.76 28.8-3.968 7.872-11.648 14.784-23.168 20.672-7.616 3.84-17.92 7.552-30.848 10.944-12.736 3.584-22.976 5.632-30.72 6.656v38.080h340.096v-38.080c-9.408-0.704-20.032-2.112-31.872-4.16-11.904-2.112-22.528-4.8-32-8.128-11.2-4.096-18.816-10.944-22.592-20.032-3.968-9.152-5.824-19.072-5.824-29.76v-565.568c0-11.776 1.856-21.76 5.824-29.888 3.776-8.192 11.392-14.976 22.592-20.544 7.104-3.328 17.408-6.208 30.848-8.768 13.376-2.624 24.384-4.288 33.024-4.992v-38.080z" />
<glyph unicode="&#xe646;" glyph-name="uniE646" d="M512 832c-103.552 0-199.68-40.768-271.296-112.704l-112.704 112.704v-320h320l-115.904 115.904c47.808 47.936 110.912 76.096 179.904 76.096 141.184 0 256-114.816 256-256s-114.816-256-256-256c-81.344 0-155.968 37.312-204.8 102.4l-102.4-76.864c73.344-97.6 185.28-153.536 307.2-153.536 211.776 0 384 172.224 384 384s-172.224 384-384 384z" />
<glyph unicode="&#xe647;" glyph-name="uniE647" d="M512 832c103.552 0 199.68-40.768 271.296-112.704l112.704 112.704v-320h-320l115.904 115.904c-47.808 47.936-110.912 76.096-179.904 76.096-141.184 0-256-114.816-256-256s114.816-256 256-256c81.344 0 155.968 37.312 204.8 102.4l102.4-76.864c-73.344-97.6-185.28-153.536-307.2-153.536-211.776 0-384 172.224-384 384s172.224 384 384 384z" />
<glyph unicode="&#xe648;" glyph-name="uniE648" d="M704 960h-384c-70.4 0-128-57.6-128-128v-768c0-70.4 57.6-128 128-128h384c70.4 0 128 57.6 128 128v768c0 70.4-57.6 128-128 128zM480 896h64c17.664 0 32-14.336 32-32s-14.336-32-32-32h-64c-17.664 0-32 14.336-32 32s14.336 32 32 32zM512-32c-35.392 0-64 28.608-64 64s28.608 64 64 64 64-28.608 64-64-28.608-64-64-64zM768 160c0-17.6-14.4-32-32-32h-448c-17.6 0-32 14.4-32 32v576c0 17.6 14.4 32 32 32h448c17.6 0 32-14.4 32-32v-576z" />
<glyph unicode="&#xe649;" glyph-name="uniE649" d="M908.096 860.032c-9.088 11.392-20.288 20.288-33.344 26.496-12.928 6.272-26.944 9.472-41.472 9.472h-642.56c-14.528 0-28.544-3.2-41.472-9.408-13.056-6.272-24.32-15.232-33.408-26.56l-115.84-144.768v-619.264c0-25.6 9.984-49.728 28.096-67.904s42.304-28.096 67.904-28.096h832c25.6 0 49.728 9.984 67.904 28.096s28.096 42.304 28.096 67.904v619.264l-115.904 144.768zM165.76 819.968c3.072 3.776 6.784 6.72 11.2 8.896 4.288 2.048 8.96 3.136 13.76 3.136h642.56c4.8 0 9.472-1.088 13.888-3.2 4.288-2.048 8.064-5.056 11.072-8.832l45.568-51.968h-783.68l45.632 51.968zM448 704h128v-256h-128v256zM960 96c0-8.576-3.328-16.576-9.344-22.656s-14.080-9.344-22.656-9.344h-832c-8.576 0-16.576 3.328-22.656 9.344s-9.344 14.080-9.344 22.656v608h320v-320h256v320h320v-608zM320 320h384v-64h-384v64zM320 192h384v-64h-384v64z" />
<glyph unicode="&#xe64a;" glyph-name="uniE64A" d="M512 960c-78.784 0-241.92-180.032-438.848-219.456 0-219.392 219.392-804.544 438.848-804.544s438.848 585.152 438.848 804.544c-196.928 39.424-360.064 219.456-438.848 219.456zM512 0c-142.656 0-345.152 451.968-371.968 691.84 101.696 32 190.080 91.52 263.232 140.672 38.656 26.048 91.648 61.696 109.44 63.488 16.384-1.792 69.376-37.44 108.032-63.488 73.216-49.216 161.536-108.672 263.232-140.672-26.816-239.872-229.312-691.84-371.968-691.84zM480 242.752l-182.656 182.592 45.312 45.312 137.344-137.408 265.344 265.408 45.312-45.312z" />
<glyph unicode="&#xe64b;" glyph-name="uniE64B" d="M768 832v64h-64v-64h-384v64h-64v-64h-192v-832h896v832h-192zM896 64h-768v448h768v-448zM896 576h-768v192h128v-64h64v64h384v-64h64v64h128v-192z" />
<glyph unicode="&#xe64c;" glyph-name="uniE64C" d="M621.248 896h-493.248v-896h768v621.248l-274.752 274.752zM640 786.752l146.752-146.752h-146.752v146.752zM832 64h-640v768h384v-256h256v-512zM320 512h384v-64h-384v64zM320 384h384v-64h-384v64zM320 256h384v-64h-384v64z" />
<glyph unicode="&#xe64d;" glyph-name="uniE64D" d="M512 864c-229.376 0-416-186.624-416-416s186.624-416 416-416 416 186.624 416 416-186.624 416-416 416zM160 448c0 85.568 30.72 163.968 81.664 225.088l495.36-495.36c-61.056-51.008-139.456-81.728-225.024-81.728-194.048 0-352 157.952-352 352zM782.336 222.912l-495.36 495.36c61.056 51.008 139.456 81.728 225.024 81.728 194.048 0 352-157.952 352-352 0-85.568-30.72-163.968-81.664-225.088z" />
<glyph unicode="&#xe64e;" glyph-name="uniE64E" d="M965.568 576h-901.568v64h762.432l-146.752 171.2 48.64 41.6zM295.68 43.2l-237.248 276.8h901.568v-64h-762.432l146.752-171.2z" />
<glyph unicode="&#xe64f;" glyph-name="uniE64F" horiz-adv-x="960" d="M940.608 829.44c-3.008 1.28-73.856 31.104-176.192 31.104s-197.632-30.016-284.416-87.168c-86.784 57.152-182.144 87.168-284.416 87.168s-173.184-29.888-176.192-31.104l-21.376-9.216 71.168-782.464 45.376 32.192c0.96 0.64 93.056 65.216 194.752 65.216 53.184 0 99.52-18.688 138.688-53.952v-17.216h64v17.216c39.168 35.264 85.504 53.952 138.688 53.952 101.696 0 193.792-64.576 194.752-65.216l45.376-32.192 71.168 782.528-21.376 9.152zM448 161.664c-41.344 24.896-87.68 37.44-138.688 37.44-74.944 0-143.168-27.648-185.984-49.792l-57.216 628.608c25.536 7.68 71.872 18.624 129.408 18.624 90.752 0 175.552-25.984 252.48-77.376v-557.504zM836.672 149.312c-42.816 22.208-111.040 49.792-185.984 49.792-51.008 0-97.344-12.544-138.688-37.44v557.504c76.928 51.392 161.728 77.376 252.416 77.376 57.536 0 103.872-10.944 129.408-18.624l-57.152-628.608z" />
<glyph unicode="&#xe650;" glyph-name="uniE650" d="M768 883.008c-141.184 0-256-115.776-256-257.984v-113.024h-416c-25.6 0-49.728-9.984-67.904-28.096s-28.096-42.304-28.096-67.904v-320c0-25.6 9.984-49.728 28.096-67.904s42.304-28.096 67.904-28.096h576c25.6 0 49.728 9.984 67.904 28.096s28.096 42.304 28.096 67.904v320c0 25.6-9.984 49.728-28.096 67.904s-42.304 28.096-67.904 28.096h-96v113.024c0 107.008 86.144 193.984 192 193.984s192-86.976 192-193.984v-113.024h64v113.024c0 142.208-114.816 257.984-256 257.984zM672 448c8.576 0 16.576-3.328 22.656-9.344s9.344-14.080 9.344-22.656v-320c0-8.576-3.328-16.576-9.344-22.656s-14.080-9.344-22.656-9.344h-576c-8.576 0-16.576 3.328-22.656 9.344s-9.344 14.080-9.344 22.656v320c0 8.576 3.328 16.576 9.344 22.656s14.080 9.344 22.656 9.344h576z" />
<glyph unicode="&#xe651;" glyph-name="uniE651" d="M801.28 448l-401.92-468.8-48.64 41.6 366.272 427.2-366.272 427.2 48.64 41.6z" />
<glyph unicode="&#xe652;" glyph-name="uniE652" d="M222.72 448l401.92 468.8 48.64-41.6-366.272-427.2 366.272-427.2-48.64-41.6z" />
<glyph unicode="&#xe653;" glyph-name="uniE653" horiz-adv-x="1092" d="M68.266 823.466h955.732v-68.266h-955.732v68.266zM68.266 482.132h955.732v-68.266h-955.732v68.266zM68.266 140.8h955.732v-68.268h-955.732v68.268z" />
<glyph unicode="&#xe654;" glyph-name="uniE654" horiz-adv-x="960" d="M791.808 554.624l-311.808-346.496-311.808 346.496 47.616 42.752 232.192-257.984v556.608h64v-556.608l232.192 257.984zM960 0h-960v320h64v-256h832v256h64z" />
<glyph unicode="&#xe655;" glyph-name="uniE655" d="M384 128h256v-64h-256v64zM448 0h128v-64h-128v64zM512 960c-176.768 0-320-143.232-320-320s192-256 192-448h256c0 192 192 271.232 192 448s-143.232 320-320 320zM582.016 256h-140.032c-16.256 85.376-63.040 149.568-105.216 207.488-43.328 59.456-80.768 110.848-80.768 176.512 0 141.184 114.816 256 256 256s256-114.816 256-256c0-65.664-37.44-117.056-80.768-176.512-42.176-57.92-88.96-122.112-105.216-207.488z" />
<glyph unicode="&#xe656;" glyph-name="uniE656" d="M448 0c0-35.346-28.654-64-64-64s-64 28.654-64 64c0 35.346 28.654 64 64 64s64-28.654 64-64zM896 0c0-35.346-28.654-64-64-64s-64 28.654-64 64c0 35.346 28.654 64 64 64s64-28.654 64-64zM273.408 640l-57.6 192h-215.808v-64h168.192l192-640h535.808v64h-488.192l-19.2 64h531.2l104.192 347.328v36.672h-750.592zM872.192 320h-502.784l-76.8 256h656.384l-76.8-256z" />
<glyph unicode="&#xe657;" glyph-name="uniE657" d="M665.536 960c0 0-235.072 0-315.584 0-144.384 0-280.32-101.312-280.32-227.968 0-129.408 98.368-230.080 245.248-230.080 10.24 0 20.16 2.304 29.888 3.008-9.6-18.176-16.256-37.76-16.256-59.072 0-35.968 19.328-64.704 43.712-88.512-18.304 0-36.288-0.256-55.808-0.256-178.752-0.064-316.416-113.856-316.416-231.936 0-116.352 150.912-189.184 329.728-189.184 203.904 0 316.544 115.776 316.544 232.128 0 93.248-27.52 149.12-112.576 209.408-29.12 20.544-84.8 70.656-84.8 100.16 0 34.496 9.856 51.52 61.824 92.16 53.184 41.6 90.944 91.2 90.944 159.296 0 80.96-34.816 179.712-102.528 179.712h115.2l51.2 51.136zM559.616 188.288c2.432-10.88 3.968-21.952 3.968-33.216 0-94.016-60.672-167.488-234.496-167.488-123.648 0-212.864 78.208-212.864 172.224 0 92.096 110.72 168.832 234.432 167.488 28.8-0.32 55.68-4.992 80.064-12.736 67.072-46.784 115.2-73.152 128.896-126.272zM361.6 538.944c-83.008 2.368-161.92 92.8-176.192 201.664-14.272 109.056 41.408 192.448 124.352 190.016 82.944-2.56 161.856-89.984 176.192-198.912 14.272-108.992-41.344-195.264-124.352-192.768zM896 576v128h-128v-128h-128v-124.416l128-3.584v-128h128v128h128v128z" />
<glyph unicode="&#xe658;" glyph-name="uniE658" d="M386.688-64h189.312v512.064h122.496l69.504 191.936h-192v128c0 46.016-1.984 64 64 64h128v128h-128c-169.6 0-256-70.144-256-214.080v-105.92h-128v-192h128l2.688-512z" />
<glyph unicode="&#xe659;" glyph-name="uniE659" d="M1024 793.216c-35.584-19.776-79.104-31.616-118.592-35.584 43.52 27.648 75.136 71.168 90.944 122.56-39.552-23.744-83.008-43.52-134.4-55.36-39.616 43.52-91.008 71.168-150.272 71.168-114.688 0-209.536-98.816-209.536-225.344 0-15.808 0-35.584 3.968-51.392-174.016 7.872-328.192 98.816-430.976 233.216-19.776-31.616-27.712-71.168-27.712-114.624 0-79.104 35.584-146.304 90.944-185.792-35.584 0-67.2 11.84-94.912 27.648v-3.968c0-106.752 71.168-197.696 166.080-221.376-15.808-3.968-35.584-7.936-55.36-7.936-11.84 0-27.648 0-39.552 3.968 27.648-90.944 102.784-154.176 193.728-154.176-71.168-59.328-162.112-94.912-256.96-94.912-15.808 0-31.616 0-51.392 3.968 90.944-63.232 201.664-102.784 320.256-102.784 383.488 0 593.024 340.032 593.024 636.544 0 7.936 0 19.776 0 27.648 47.488 39.552 83.072 79.104 110.72 126.528z" />
<glyph unicode="&#xe65a;" glyph-name="uniE65A" horiz-adv-x="960" d="M832 64v256h-128v-256h-64v512h-128v-512h-64v768h-128v-768h-64v384h-128v-384h-128v-64h960v64z" />
<glyph unicode="&#xe65b;" glyph-name="uniE65B" d="M704 832v64h-384v-64h-192v-832h768v832h-192zM832 64h-640v576h640v-576zM192 704v64h192v64h256v-64h192v-64h-640zM726.656 489.408l-45.312 45.184-233.344-233.344-105.408 105.408-45.184-45.312 150.592-150.592z" />
<glyph unicode="&#xe65c;" glyph-name="uniE65C" d="M927.36 660.224c0 34.624-13.056 66.752-36.608 90.368l-89.344 90.688c-24.896 24.896-54.464 37.504-87.936 37.504-42.688 0-68.992-21.376-85.312-37.696l-564.16-575.104v-265.984h250.112l493.632 491.008 1.6-1.6 45.248 45.248-1.472 1.472 36.416 36.224c25.088 25.088 37.824 54.656 37.824 87.872zM128 210.752l146.752-146.752h-146.752v146.752zM326.656 102.656l-168.256 168.256 430.592 438.848 173.504-173.504-435.84-433.6zM844.352 617.728l-36.48-36.352-174.080 174.016 39.808 40.576c13.696 13.632 24.512 18.752 39.872 18.752 16.32 0 29.888-5.952 42.496-18.624l89.344-90.688c11.648-11.584 18.048-27.648 18.048-45.184 0-16.064-6.016-29.568-19.008-42.496z" />
<glyph unicode="&#xe65d;" glyph-name="uniE65D" d="M822.656 713.344l137.344-137.344v320h-320l137.344-137.344-265.344-265.408-265.344 265.408 137.344 137.344h-320v-320l137.344 137.344 265.408-265.344-265.408-265.344-137.344 137.344v-320h320l-137.344 137.344 265.344 265.408 265.344-265.408-137.344-137.344h320v320l-137.344-137.344-265.408 265.344z" />
<glyph unicode="&#xe65e;" glyph-name="uniE65E" d="M517.056 50.368c-46.016 0-89.024 5.824-128.832 17.344-39.872 11.52-73.536 25.088-101.184 40.64l-36.672-37.184h-56.256v272.448h49.856c10.304-25.856 23.36-53.184 39.296-81.92s34.368-54.528 55.232-77.248c21.632-23.744 45.76-43.136 72.512-57.984 26.752-14.912 57.984-22.4 93.76-22.4 48.192 0 85.12 11.776 110.784 35.392 25.664 23.552 38.528 53.248 38.528 89.088 0 29.376-10.88 54.144-32.704 74.112-21.696 20.032-55.488 37.312-101.184 51.904-29.696 9.6-57.088 18.496-82.048 26.688-25.024 8.192-48.448 16.576-70.4 25.088-50.688 20.224-88.32 49.152-112.96 86.656-24.576 37.632-36.928 79.616-36.928 126.080 0 29.44 6.4 57.728 19.136 84.864s31.36 51.52 55.808 73.152c23.36 20.16 53.312 36.672 89.792 49.472 36.416 12.736 76.096 19.136 118.976 19.136 41.728 0 80.896-5.824 117.376-17.536 36.48-11.648 65.152-23.36 86.080-35.008l32.448 31.872h45.376v-257.152h-40.64c-10.624 27.712-23.104 55.936-37.44 84.864-14.4 28.928-29.504 52.992-45.44 72.192-17.344 20.544-37.376 36.992-60.032 49.28-22.592 12.224-49.152 18.304-79.616 18.304-38.272 0-69.504-10.816-93.76-32.448s-36.416-48.384-36.416-80.32c0-30.144 10.496-54.784 31.616-73.92 21.056-19.2 53.888-36.032 98.496-50.56 26.24-8.896 52.992-17.728 80.256-26.624s51.52-17.344 72.768-25.472c51.392-19.904 90.432-47.296 117.184-82.176 26.688-34.944 40.064-78.336 40.064-130.048 0-32.64-7.616-64.192-22.784-94.656s-35.84-55.872-61.632-76.096c-28.288-22.336-61.056-39.488-98.304-51.584-37.12-12.224-80.512-18.24-130.112-18.24zM0 512h1024v-64h-1024v64z" />
<glyph unicode="&#xe65f;" glyph-name="uniE65F" d="M896 591.168l-240.832 240.832h-71.744l-455.424-470.592v-71.744l225.6-225.664h542.4v64h-404.48l404.48 391.424v71.744zM398.848 128h-18.752l-188.096 188.096v18.752l116.672 126.4 221.44-216.576-131.264-116.672z" />
<glyph unicode="&#xe660;" glyph-name="uniE660" horiz-adv-x="960" d="M933.824 535.168c-24.384 32.128-61.568 40.832-101.888 40.832h-198.592c24.448 64 59.84 215.744 8.448 293.696-17.152 25.984-51.904 61.952-119.744 61.952-40.128 0-51.904-52.416-71.232-127.168-29.44-113.6-73.984-292.48-204.48-292.48h-54.336v-512h551.040c28.16 0 54.976 18.688 77.504 35.84 22.592 17.216 38.4 45.44 45.824 72.448l88.896 317.568c10.816 38.912 3.008 77.248-21.44 109.312zM0 512h128v-512h-128v512z" />
<glyph unicode="&#xe661;" glyph-name="uniE661" horiz-adv-x="960" d="M955.264 441.728l-88.896 317.568c-7.424 27.072-23.232 69.504-45.824 86.656-22.464 17.152-49.28 50.048-77.504 50.048h-551.040v-512h54.336c130.496 0 175.040-193.088 204.48-306.624 19.392-74.752 31.104-134.272 71.232-134.272 67.776 0 102.528 46.528 119.744 72.576 51.392 77.888 16 240.32-8.448 304.32h198.592c40.32 0 77.504-5.504 101.888 26.624 24.448 32.128 32.256 56.192 21.44 95.104zM0 896h128v-512h-128v512z" />
<glyph unicode="&#xe662;" glyph-name="uniE662" d="M750.464 933.76c-38.464 19.264-85.312 3.648-104.64-34.88l-131.712-263.488-46.528 147.968c-12.928 41.088-56.64 63.936-97.792 51.072-41.088-12.928-63.936-56.704-51.008-97.792l94.912-302.016-111.040-222.144c-19.264-38.528-3.648-85.376 34.88-104.64 11.2-5.568 23.104-8.256 34.816-8.256 28.608 0 56.128 15.808 69.824 43.136l38.848 77.696 66.56-211.776c10.496-33.344 41.216-54.656 74.368-54.656 7.744 0 15.616 1.216 23.424 3.648 41.088 12.928 63.936 56.704 51.008 97.792l-114.944 365.76 203.968 407.936c19.2 38.528 3.584 85.376-34.944 104.64z" />
<glyph unicode="&#xe663;" glyph-name="uniE663" d="M928 448c-41.728 0-76.928-26.816-90.112-64h-5.888c-64 0-152-10.624-152-188.8 0-137.792-76.416-199.424-139.968-199.424-38.208 0-74.624 20.16-102.528 58.688-24.384 33.664-53.504 73.536-53.504 201.536v9.6c116.672 45.568 288 167.424 288 489.984 0 109.632-122.688 150.912-184.832 164.8-8.512 13.248-22.72 22.528-39.68 22.528-26.496 0-48-21.504-48-48s21.504-48 48-48c10.752 0 20.224 4.224 28.224 10.176 47.424-11.008 132.288-39.424 132.288-101.504 0-280.128-136.832-390.4-256-433.536-119.168 43.136-256 153.408-256 433.536 0 61.76 84.096 90.176 131.52 101.376 8-5.888 17.344-10.048 28.032-10.048 26.496 0 48 21.504 48 48s-21.504 48-48 48c-17.024 0-31.296-9.408-39.808-22.784-62.464-14.144-183.744-55.552-183.744-164.544 0-322.56 171.328-444.48 288-489.984v-9.6c0-64 22.72-178.752 65.664-238.016 39.68-54.848 95.936-81.984 154.368-81.984 94.4 0 203.968 82.752 203.968 264.512 0 84.928 24 119.488 88 119.488h5.888c13.248-37.184 48.384-64 90.112-64 52.992 0 96 43.008 96 96s-43.008 96-96 96z" />
<glyph unicode="&#xe664;" glyph-name="uniE664" horiz-adv-x="960" d="M435.84-64c-95.744 0-179.264 64.704-203.072 157.312-4.544 17.6 6.080 35.584 23.68 40.128s35.584-6.080 40.128-23.68c16.32-63.488 73.6-107.84 139.264-107.84 39.872 0 81.6 20.544 111.808 54.976 23.68 27.072 35.776 58.624 32.32 84.416-19.776 148.416 94.528 250.368 99.392 254.592 49.088 50.24 77.12 118.912 77.12 191.68-0.064 152.384-124.096 276.416-276.48 276.416s-276.416-124.032-276.416-276.416c0-18.496 1.856-37.12 5.504-55.296 3.584-17.856-7.936-35.2-25.728-38.784-18.112-3.648-35.2 7.936-38.784 25.728-4.544 22.464-6.848 45.504-6.848 68.352 0 188.736 153.536 342.272 342.272 342.272s342.272-153.536 342.272-342.272c0-90.112-34.688-175.168-97.792-239.552-2.688-2.496-94.336-85.184-79.296-198.016 6.016-45.056-11.52-94.784-48.064-136.512-42.432-48.512-102.72-77.504-161.28-77.504zM413.696 157.888c-56.896 0-104.896 47.040-104.896 102.72 0 17.664 14.336 32 32 32s32-14.336 32-32c0-20.608 19.136-38.72 40.896-38.72 12.928 0 21.376 7.104 25.344 11.392 6.528 7.040 9.792 16 9.088 24.704-5.952 71.296 25.152 116.032 50.176 152 16.32 23.488 29.248 41.984 29.248 62.72 0 21.312-17.344 38.656-38.656 38.656-21.44 0-38.72-21.184-38.72-38.656 0-29.632-26.048-51.968-60.544-51.968-27.776 0-55.104 13.568-75.008 37.248-15.744 18.688-34.496 53.312-34.496 112 0 110.208 89.664 199.936 199.936 199.936s199.936-89.664 199.936-199.936c0-17.664-14.336-32-32-32s-32 14.336-32 32c0 74.944-60.992 135.936-135.936 135.936s-136-61.056-136-136c0-51.84 17.984-71.936 28.736-79.296 5.504-3.776 10.496-5.248 14.080-5.696 6.464 49.408 51.328 90.496 101.952 90.496 56.64 0 102.656-46.080 102.656-102.656 0-40.832-20.672-70.592-40.704-99.328-22.144-31.808-43.008-61.76-38.976-110.144 2.24-26.432-7.168-53.184-25.728-73.344-18.688-20.416-45.056-32.064-72.384-32.064z" />
<glyph unicode="&#xe665;" glyph-name="uniE665" d="M928 384c-41.728 0-76.928-26.816-90.112-64h-132.864l-65.984 263.744c-7.104 28.48-54.912 28.48-62.080 0l-94.144-376.448-131.52 631.232c-3.072 14.72-15.936 25.344-30.976 25.472-14.080 1.536-28.096-10.176-31.488-24.832l-90.304-391.168h-134.528c-17.664 0-32-14.336-32-32s14.336-32 32-32h160c14.912 0 27.84 6.272 31.168 20.8l63.232 269.952 130.304-633.344c3.008-14.528 15.744 22.592 30.656-41.408 0.192 0 0.384 0 0.64 0 14.656 0 27.456 25.984 31.040 40.256l96.96 403.84 41.024-163.84c3.52-14.272 16.32-24.256 30.976-24.256h157.824c13.248-37.184 48.384-64 90.112-64 52.992 0 96 43.008 96 96s-42.944 96-95.936 96z" />
<glyph unicode="&#xe666;" glyph-name="uniE666" d="M256 64h512v320h-512v-320zM320 320h384v-192h-384v192zM821.056 505.28l-77.504 38.72c-20.736 10.368-39.552 40.832-39.552 64v35.904c36.352 8.896 64 40.256 64 79.296v153.6c0 45.888-37.312 83.2-83.2 83.2h-345.6c-45.888 0-83.2-37.312-83.2-83.2v-153.6c0-39.104 27.648-70.4 64-79.296v-35.904c0-23.168-18.816-53.632-39.552-64l-77.504-38.72c-42.048-21.056-74.944-74.304-74.944-121.28v-352c0-52.928 43.072-96 96-96h576c52.928 0 96 43.072 96 96v352c0 46.976-32.896 100.224-74.944 121.28zM320 876.8c0 10.432 8.768 19.2 19.2 19.2h345.6c10.432 0 19.2-8.768 19.2-19.2v-153.6c0-10.432-8.768-19.2-19.2-19.2h-345.6c-10.432 0-19.2 8.768-19.2 19.2v153.6zM832 32c0-17.664-14.336-32-32-32h-576c-17.664 0-32 14.336-32 32v352c0 23.168 18.816 53.632 39.552 64l77.504 38.72c42.048 21.056 74.944 74.304 74.944 121.28v32h256v-32c0-46.976 32.896-100.224 74.944-121.28l77.504-38.72c20.736-10.368 39.552-40.832 39.552-64v-352z" />
<glyph unicode="&#xe667;" glyph-name="uniE667" d="M864.832 482.496c-84.096 0-178.176-67.776-287.424-83.776 62.592 84.672 104.192 180.672 104.192 275.584 0 87.104-70.592 157.696-157.696 157.696s-157.696-70.592-157.696-157.696 69.184-239.488 146.496-265.536c-87.872 47.936-121.472 196.672-121.472 264.384s54.848 122.56 122.496 122.56c67.648 0 122.56-54.848 122.56-122.56 0-80.832-58.432-198.528-148.416-293.696v0c-113.024 63.36-226.432 120.448-315.84 120.448-94.976 0-172.032-77.056-172.032-172.096s77.056-172.032 172.032-172.032c126.336 0 241.472 70.848 324.288 150.336 0 0 0 0 0 0v0c128.64-69.888 261.952-141.952 368.448-141.952 87.936 0 159.168 71.296 159.168 159.168 0.064 87.936-71.232 159.168-159.104 159.168zM172.096 219.968c-59.584 0-107.904 48.32-107.904 107.904s48.32 107.904 107.904 107.904c73.344 0 168.64-46.080 269.952-100.288-77.696-67.584-171.968-115.52-269.952-115.52zM863.104 210.688c-81.6 0-200.512 69.184-324.224 139.84v0 0c12.416 14.080 24 28.736 35.264 43.648 110.72 1.728 191.68 60.096 289.024 60.096 67.264 0 121.728-54.528 121.728-121.728s-54.528-121.856-121.792-121.856z" />
<glyph unicode="&#xe668;" glyph-name="uniE668" d="M512 960c-282.816 0-512-229.184-512-512s229.184-512 512-512 512 229.184 512 512-229.184 512-512 512zM512-21.44c-144.256 0-273.472 65.472-359.616 168.128 43.84 18.944 153.088 58.368 222.272 78.528 5.44 1.728 6.4 1.984 6.4 26.368 0 26.112-2.944 44.544-9.344 58.112-8.64 18.432-18.944 49.664-22.656 77.76-10.368 12.032-24.384 35.712-33.472 80.96-7.872 39.872-4.16 54.4 0.96 67.968 0.512 1.472 1.216 2.944 1.472 4.416 1.984 9.088-0.704 57.856-7.616 95.488-4.672 25.856 1.216 80.768 36.928 126.272 22.4 28.8 65.472 64 142.784 68.928h43.072c78.528-4.928 121.6-40.128 144-68.928 35.712-45.568 41.6-100.416 36.672-126.272-6.912-37.632-9.6-86.144-7.616-95.488 0.256-1.472 0.96-2.944 1.472-4.16 5.184-13.568 9.088-28.032 0.96-67.968-9.088-45.312-23.168-68.928-33.472-80.96-3.712-28.032-14.016-59.072-22.656-77.76-8.128-16.96-16.256-37.184-16.256-57.344 0-24.384 0.96-24.64 6.656-26.368 65.728-19.456 178.944-58.56 228.928-79.040-86.144-102.912-215.36-168.64-359.872-168.64z" />
<glyph unicode="&#xe669;" glyph-name="uniE669" d="M576 266.24v245.76h-192v-17.472c64 1.792 64-13.76 64-46.72v-181.504c0-33.024 0-48.64-64-46.784v-27.52h256v27.52c-64-1.92-64 13.696-64 46.72zM576 640c0-35.346-28.654-64-64-64s-64 28.654-64 64c0 35.346 28.654 64 64 64s64-28.654 64-64zM512 0c-247.040 0-448 200.96-448 448s200.96 448 448 448 448-200.96 448-448-200.96-448-448-448zM512 832c-211.776 0-384-172.224-384-384s172.224-384 384-384 384 172.224 384 384-172.224 384-384 384z" />
<glyph unicode="&#xe66a;" glyph-name="uniE66A" horiz-adv-x="960" d="M768 512v160c0 158.784-129.216 288-288 288s-288-129.216-288-288v-160c-35.2 0-64-28.8-64-64v-448c0-35.2 28.8-64 64-64h576c35.2 0 64 28.8 64 64v448c0 35.2-28.8 64-64 64zM320 672c0 88.192 71.808 160 160 160s160-71.808 160-160v-160h-320v160zM512 197.888v-69.888c0-17.664-14.336-32-32-32s-32 14.336-32 32v69.888c-37.184 13.248-64 48.384-64 90.112 0 52.992 43.008 96 96 96s96-43.008 96-96c0-41.728-26.816-76.928-64-90.112z" />
<glyph unicode="&#xe66b;" glyph-name="uniE66B" d="M1024 448v64h-256v67.2c73.024 14.848 128 79.36 128 156.8 0 88.384-71.616 160-160 160s-160-71.616-160-160c0-77.376 54.976-141.952 128-156.8v-67.2h-384v67.2c73.024 14.848 128 79.36 128 156.8 0 88.384-71.616 160-160 160s-160-71.616-160-160c0-77.376 54.976-141.952 128-156.8v-67.2h-256v-64h256v-179.968l-216.064-246.976 48.192-42.112 199.936 228.48 224-228.48 224 228.48 199.936-228.48 48.192 42.112-216.192 246.976v179.968h256zM640 736c0 52.992 43.008 96 96 96s96-43.008 96-96-43.008-96-96-96-96 43.008-96 96zM192 736c0 52.992 43.008 96 96 96s96-43.008 96-96-43.008-96-96-96-96 43.008-96 96zM320 268.032v179.968h384v-179.968l-192-204.032-192 204.032z" />
<glyph unicode="&#xe900;" glyph-name="presentation, board, art-board, chart" d="M864.064 799.84h-736.16c-17.632 0-31.904 14.304-31.904 32 0 17.664 14.272 31.968 31.904 31.968h337.152v32c0 17.664 14.304 31.968 31.936 31.968s31.904-14.304 31.904-31.968v-32h335.168c17.664 0 31.936-14.336 31.936-31.968 0-17.696-14.272-32-31.936-32zM864.064 288.064h-736.16v479.808h736.16v-479.808zM224 542.976c0-70.816 57.312-128.224 128-128.224s128 57.408 128 128.224h-128v128.288c-70.688 0-128-57.44-128-128.288zM576.768 671.904h-31.904v-31.968h31.904v31.968zM576.768 607.936h-31.904v-31.968h31.904v31.968zM576.768 543.968h-31.904v-31.968h31.904v31.968zM576.768 480h-31.904v-32h31.904v32zM576.768 416h-31.904v-32h31.904v32zM768.32 671.904h-159.584v-31.968h159.584v31.968zM768.32 607.936h-159.584v-31.968h159.584v31.968zM768.32 543.968h-159.584v-31.968h159.584v31.968zM768.32 480h-159.584v-32h159.584v32zM768.32 416h-159.584v-32h159.584v32zM408.992 128.128h72.032v159.936h31.936v-159.936h70.912l-70.912 159.936h63.84l127.648-287.872h-63.808l-42.56 96h-85.12v-159.936h-31.936v159.936h-86.432l-43.232-96h-63.84l129.664 287.872h63.84l-72.032-159.936zM512.96 288.064v0 0 0zM481.024 288.064v0 0 0z" />
<glyph unicode="&#xe902;" glyph-name="tags" d="M200.493 800v0 0c11.047 19.192 31.762 32 55.495 32h256.012l428.189-428.189c25.061-25.061 25.188-65.634 0.241-90.58l-229.661-229.661c-20.273-20.273-50.933-23.999-75.164-11.164l-20.836-20.836c-24.909-24.909-65.501-24.838-90.58 0.241l-428.189 428.189v256.012c0 35.59 28.648 63.988 63.988 63.988h40.505zM192 768h-31.73c-17.822 0-32.27-14.624-32.27-32.27v-239.73l419.195-421.477c12.433-12.5 32.592-12.485 44.942-0.051l18.632 18.759-418.769 418.769v256zM496 800h-239.73c-17.822 0-32.27-14.624-32.27-32.27v-239.73l419.195-421.477c12.433-12.5 32.592-12.485 44.942-0.051l229.235 230.8c12.388 12.473 12.327 32.604-0.188 45.015l-421.184 417.713zM368 576v0c-44.183 0-80 35.817-80 80s35.817 80 80 80c44.183 0 80-35.817 80-80s-35.817-80-80-80zM368 608c26.51 0 48 21.49 48 48s-21.49 48-48 48c-26.51 0-48-21.49-48-48s21.49-48 48-48v0z" />
<glyph unicode="&#xe903;" glyph-name="tag" d="M448 832l428.189-428.189c25.061-25.061 25.188-65.634 0.241-90.58l-229.661-229.661c-24.909-24.909-65.501-24.838-90.58 0.241l-428.189 428.189v256.012c0 35.59 28.648 63.988 63.988 63.988h256.012zM432 800h-239.73c-17.822 0-32.27-14.624-32.27-32.27v-239.73l419.195-421.477c12.433-12.5 32.592-12.485 44.942-0.051l229.235 230.8c12.388 12.473 12.327 32.604-0.188 45.015l-421.184 417.713zM304 576v0c-44.183 0-80 35.817-80 80s35.817 80 80 80c44.183 0 80-35.817 80-80s-35.817-80-80-80zM304 608c26.51 0 48 21.49 48 48s-21.49 48-48 48c-26.51 0-48-21.49-48-48s21.49-48 48-48v0z" />
<glyph unicode="&#xe905;" glyph-name="newspaper" d="M896 704v128h-896v-704c0-35.346 28.654-64 64-64h864c53.022 0 96 42.978 96 96v544h-128zM832 128h-768v640h768v-640zM128 640h640v-64h-640zM512 512h256v-64h-256zM512 384h256v-64h-256zM512 256h192v-64h-192zM128 512h320v-320h-320z" />
<glyph unicode="&#xe906;" glyph-name="hashtag" d="M566.286 365.714l36.571 146.286h-145.143l-36.571-146.286h145.143zM1005.143 653.714l-32-128c-2.286-8-9.143-13.714-17.714-13.714h-186.857l-36.571-146.286h177.714c5.714 0 10.857-2.857 14.286-6.857 3.429-4.571 5.143-10.286 3.429-16l-32-128c-1.714-8-9.143-13.714-17.714-13.714h-186.857l-46.286-187.429c-2.286-8-9.714-13.714-17.714-13.714h-128c-5.714 0-11.429 2.857-14.857 6.857-3.429 4.571-4.571 10.286-3.429 16l44.571 178.286h-145.143l-46.286-187.429c-2.286-8-9.714-13.714-17.714-13.714h-128.571c-5.143 0-10.857 2.857-14.286 6.857-3.429 4.571-4.571 10.286-3.429 16l44.571 178.286h-177.714c-5.714 0-10.857 2.857-14.286 6.857-3.429 4.571-4.571 10.286-3.429 16l32 128c2.286 8 9.143 13.714 17.714 13.714h186.857l36.571 146.286h-177.714c-5.714 0-10.857 2.857-14.286 6.857-3.429 4.571-5.143 10.286-3.429 16l32 128c1.714 8 9.143 13.714 17.714 13.714h186.857l46.286 187.429c2.286 8 9.714 13.714 18.286 13.714h128c5.143 0 10.857-2.857 14.286-6.857 3.429-4.571 4.571-10.286 3.429-16l-44.571-178.286h145.143l46.286 187.429c2.286 8 9.714 13.714 18.286 13.714h128c5.143 0 10.857-2.857 14.286-6.857 3.429-4.571 4.571-10.286 3.429-16l-44.571-178.286h177.714c5.714 0 10.857-2.857 14.286-6.857 3.429-4.571 4.571-10.286 3.429-16z" />
<glyph unicode="&#xe907;" glyph-name="tags2" horiz-adv-x="1085" d="M256 694.857c0 40.571-32.571 73.143-73.143 73.143s-73.143-32.571-73.143-73.143 32.571-73.143 73.143-73.143 73.143 32.571 73.143 73.143zM865.714 365.714c0-19.429-8-38.286-21.143-51.429l-280.571-281.143c-13.714-13.143-32.571-21.143-52-21.143s-38.286 8-51.429 21.143l-408.571 409.143c-29.143 28.571-52 84-52 124.571v237.714c0 40 33.143 73.143 73.143 73.143h237.714c40.571 0 96-22.857 125.143-52l408.571-408c13.143-13.714 21.143-32.571 21.143-52zM1085.143 365.714c0-19.429-8-38.286-21.143-51.429l-280.571-281.143c-13.714-13.143-32.571-21.143-52-21.143-29.714 0-44.571 13.714-64 33.714l268.571 268.571c13.143 13.143 21.143 32 21.143 51.429s-8 38.286-21.143 52l-408.571 408c-29.143 29.143-84.571 52-125.143 52h128c40.571 0 96-22.857 125.143-52l408.571-408c13.143-13.714 21.143-32.571 21.143-52z" />
<glyph unicode="&#xe908;" glyph-name="tag2" horiz-adv-x="866" d="M256 694.857c0 40.571-32.571 73.143-73.143 73.143s-73.143-32.571-73.143-73.143 32.571-73.143 73.143-73.143 73.143 32.571 73.143 73.143zM865.714 365.714c0-19.429-8-38.286-21.143-51.429l-280.571-281.143c-13.714-13.143-32.571-21.143-52-21.143s-38.286 8-51.429 21.143l-408.571 409.143c-29.143 28.571-52 84-52 124.571v237.714c0 40 33.143 73.143 73.143 73.143h237.714c40.571 0 96-22.857 125.143-52l408.571-408c13.143-13.714 21.143-32.571 21.143-52z" />
<glyph unicode="&#xe90b;" glyph-name="droplet" d="M864.626 486.838c-65.754 183.44-205.11 348.15-352.626 473.162-147.516-125.012-286.87-289.722-352.626-473.162-40.664-113.436-44.682-236.562 12.584-345.4 65.846-125.14 198.632-205.438 340.042-205.438s274.196 80.298 340.040 205.44c57.27 108.838 53.25 231.962 12.586 345.398zM738.764 201.044c-43.802-83.252-132.812-137.044-226.764-137.044-55.12 0-108.524 18.536-152.112 50.652 13.242-1.724 26.632-2.652 40.112-2.652 117.426 0 228.668 67.214 283.402 171.242 44.878 85.292 40.978 173.848 23.882 244.338 14.558-28.15 26.906-56.198 36.848-83.932 22.606-63.062 40.024-156.34-5.368-242.604z" />
<glyph unicode="&#xe90c;" glyph-name="download" horiz-adv-x="1344" d="M1086.656 544.576c-13.76 211.52-160.864 415.424-430.656 415.424-32.928 0-65.408-3.2-96.576-9.504-8.672-1.76-14.24-10.176-12.512-18.88 1.76-8.672 10.048-14.24 18.88-12.512 29.056 5.92 59.424 8.896 90.208 8.896 274.816 0 400-215.648 400-416v-48c0-8.832 7.168-16 16-16s16 7.168 16 16v48c0 0.16-0.032 0.352-0.032 0.512 98.016-8.448 224.032-93.824 224.032-272.512 0-152.544-112.448-272-256-272h-768c-127.232 0-256 93.44-256 272 0 131.008 80.128 272 256 272h48c8.832 0 16 7.168 16 16s-7.168 16-16 16h-48v64c0 119.264 73.568 193.344 192 193.344 107.648 0 192-84.928 192-193.344v-415.776l-133.12 123.52c-6.4 6.016-16.544 5.664-22.592-0.832-6.016-6.464-5.664-16.608 0.832-22.592l144.512-134.048c9.568-9.536 18.016-14.24 26.464-14.24 8.352 0 16.64 4.64 25.856 13.856l144.928 134.464c6.496 6.016 6.88 16.128 0.832 22.592-6.016 6.528-16.192 6.88-22.592 0.832l-133.12-123.552v415.776c0 126.368-98.4 225.344-224 225.344-136.064 0-224-88.448-224-225.344v-65.632c-168.16-16.256-256-160.096-256-302.368 0-147.36 100.928-304 288-304h768c161.504 0 288 133.536 288 304 0 201.728-145.824 296.896-257.344 304.576z" />
<glyph unicode="&#xe90d;" glyph-name="pin1" d="M1024 704c0 141.312-114.752 256-256 256-95.488 0-177.984-53.056-222.016-130.752 0 0.064 0.128 0.128 0.128 0.192-11.744 1.12-23.136 3.552-35.136 3.552-212.128 0-384-171.872-384-384 0-80.864 25.248-155.744 67.872-217.504l-194.848-295.488 297.248 193.984c61.12-40.992 134.624-64.992 213.76-64.992 212.128 0 384 171.872 384 384 0 11.072-2.24 21.44-3.264 32.256 78.496 43.744 132.256 126.56 132.256 222.752zM511.008 192.992c-141.248 0-256 114.752-256 256 0 141.184 114.752 256 256 256 0.384 0 0.736-0.128 0.992-0.128 0 0.256 0.128 0.448 0.128 0.64 0-0.512-0.128-0.992-0.128-1.504 0-22.24 3.744-43.36 8.992-63.936l-101.504-101.568c-49.984-49.984-49.984-131.008 0-180.992s131.008-49.984 180.992 0l100.512 100.512c21.12-5.76 43.008-9.76 65.888-9.888-0.512-140.864-115.008-255.136-255.872-255.136zM768 576c-70.496 0-128 57.44-128 128s57.504 128 128 128 128-57.44 128-128-57.504-128-128-128z" />
<glyph unicode="&#xe90e;" glyph-name="images" horiz-adv-x="1152" d="M1088 832h-64v64c0 35.2-28.8 64-64 64h-896c-35.2 0-64-28.8-64-64v-768c0-35.2 28.8-64 64-64h64v-64c0-35.2 28.8-64 64-64h896c35.2 0 64 28.8 64 64v768c0 35.2-28.8 64-64 64zM128 768v-640h-63.886c-0.040 0.034-0.082 0.076-0.114 0.116v767.77c0.034 0.040 0.076 0.082 0.114 0.114h895.77c0.040-0.034 0.082-0.076 0.116-0.116v-63.884h-768c-35.2 0-64-28.8-64-64v0zM1088 0.116c-0.034-0.040-0.076-0.082-0.116-0.116h-895.77c-0.040 0.034-0.082 0.076-0.114 0.116v767.77c0.034 0.040 0.076 0.082 0.114 0.114h895.77c0.040-0.034 0.082-0.076 0.116-0.116v-767.768zM960 608c0-53.020-42.98-96-96-96s-96 42.98-96 96 42.98 96 96 96 96-42.98 96-96zM1024 64h-768v128l224 384 256-320h64l224 192z" />
<glyph unicode="&#xe910;" glyph-name="headphones" d="M288 384h-64v-448h64c17.6 0 32 14.4 32 32v384c0 17.6-14.4 32-32 32zM736 384c-17.602 0-32-14.4-32-32v-384c0-17.6 14.398-32 32-32h64v448h-64zM1024 448c0 282.77-229.23 512-512 512s-512-229.23-512-512c0-61.412 10.83-120.29 30.656-174.848-19.478-33.206-30.656-71.87-30.656-113.152 0-112.846 83.448-206.188 192-221.716v443.418c-31.914-4.566-61.664-15.842-87.754-32.378-5.392 26.718-8.246 54.364-8.246 82.676 0 229.75 186.25 416 416 416s416-186.25 416-416c0-28.314-2.83-55.968-8.22-82.696-26.1 16.546-55.854 27.848-87.78 32.418v-443.44c108.548 15.532 192 108.874 192 221.714 0 41.274-11.178 79.934-30.648 113.138 19.828 54.566 30.648 113.452 30.648 174.866z" />
<glyph unicode="&#xe911;" glyph-name="music" d="M960 960h64v-736c0-88.366-100.29-160-224-160s-224 71.634-224 160c0 88.368 100.29 160 224 160 62.684 0 119.342-18.4 160-48.040v368.040l-512-113.778v-494.222c0-88.366-100.288-160-224-160s-224 71.634-224 160c0 88.368 100.288 160 224 160 62.684 0 119.342-18.4 160-48.040v624.040l576 128z" />
<glyph unicode="&#xe912;" glyph-name="play" d="M981.188 799.892c-143.632 20.65-302.332 32.108-469.186 32.108-166.86 0-325.556-11.458-469.194-32.108-27.53-107.726-42.808-226.75-42.808-351.892 0-125.14 15.278-244.166 42.808-351.89 143.638-20.652 302.336-32.11 469.194-32.11 166.854 0 325.552 11.458 469.186 32.11 27.532 107.724 42.812 226.75 42.812 351.89 0 125.142-15.28 244.166-42.812 351.892zM384.002 256v384l320-192-320-192z" />
<glyph unicode="&#xe91a;" glyph-name="bullhorn" d="M1024 530.744c0 200.926-58.792 363.938-131.482 365.226 0.292 0.006 0.578 0.030 0.872 0.030h-82.942c0 0-194.8-146.336-475.23-203.754-8.56-45.292-14.030-99.274-14.030-161.502s5.466-116.208 14.030-161.5c280.428-57.418 475.23-203.756 475.23-203.756h82.942c-0.292 0-0.578 0.024-0.872 0.032 72.696 1.288 131.482 164.298 131.482 365.224zM864.824 220.748c-9.382 0-19.532 9.742-24.746 15.548-12.63 14.064-24.792 35.96-35.188 63.328-23.256 61.232-36.066 143.31-36.066 231.124 0 87.81 12.81 169.89 36.066 231.122 10.394 27.368 22.562 49.266 35.188 63.328 5.214 5.812 15.364 15.552 24.746 15.552 9.38 0 19.536-9.744 24.744-15.552 12.634-14.064 24.796-35.958 35.188-63.328 23.258-61.23 36.068-143.312 36.068-231.122 0-87.804-12.81-169.888-36.068-231.124-10.39-27.368-22.562-49.264-35.188-63.328-5.208-5.806-15.36-15.548-24.744-15.548zM251.812 530.744c0 51.95 3.81 102.43 11.052 149.094-47.372-6.554-88.942-10.324-140.34-10.324-67.058 0-67.058 0-67.058 0l-55.466-94.686v-88.17l55.46-94.686c0 0 0 0 67.060 0 51.398 0 92.968-3.774 140.34-10.324-7.236 46.664-11.048 97.146-11.048 149.096zM368.15 317.828l-127.998 24.51 81.842-321.544c4.236-16.634 20.744-25.038 36.686-18.654l118.556 47.452c15.944 6.376 22.328 23.964 14.196 39.084l-123.282 229.152zM864.824 411.27c-3.618 0-7.528 3.754-9.538 5.992-4.87 5.42-9.556 13.86-13.562 24.408-8.962 23.6-13.9 55.234-13.9 89.078s4.938 65.478 13.9 89.078c4.006 10.548 8.696 18.988 13.562 24.408 2.010 2.24 5.92 5.994 9.538 5.994 3.616 0 7.53-3.756 9.538-5.994 4.87-5.42 9.556-13.858 13.56-24.408 8.964-23.598 13.902-55.234 13.902-89.078 0-33.842-4.938-65.478-13.902-89.078-4.004-10.548-8.696-18.988-13.56-24.408-2.008-2.238-5.92-5.992-9.538-5.992z" />
<glyph unicode="&#xe91b;" glyph-name="connection" horiz-adv-x="1280" d="M640 384c105.87 0 201.87-43.066 271.402-112.598l-90.468-90.468c-46.354 46.356-110.356 75.066-180.934 75.066s-134.578-28.71-180.934-75.066l-90.468 90.468c69.532 69.532 165.532 112.598 271.402 112.598zM187.452 452.548c120.88 120.88 281.598 187.452 452.548 187.452s331.668-66.572 452.55-187.452l-90.51-90.508c-96.706 96.704-225.28 149.96-362.040 149.96-136.762 0-265.334-53.256-362.038-149.962l-90.51 90.51zM988.784 825.562c106.702-45.132 202.516-109.728 284.782-191.996v0l-90.508-90.508c-145.056 145.056-337.92 224.942-543.058 224.942-205.14 0-398-79.886-543.058-224.942l-90.51 90.51c82.268 82.266 178.082 146.862 284.784 191.994 110.504 46.738 227.852 70.438 348.784 70.438s238.278-23.7 348.784-70.438zM576 64c0 35.346 28.654 64 64 64s64-28.654 64-64c0-35.346-28.654-64-64-64s-64 28.654-64 64z" />
<glyph unicode="&#xe91c;" glyph-name="podcast" d="M1024 448c0 282.77-229.23 512-512 512s-512-229.23-512-512c0-220.054 138.836-407.664 333.686-480.068l-13.686-31.932h384l-13.686 31.932c194.85 72.404 333.686 260.014 333.686 480.068zM486.79 325.174c-22.808 9.788-38.79 32.436-38.79 58.826 0 35.346 28.654 64 64 64s64-28.654 64-64c0-26.39-15.978-49.044-38.786-58.834l-25.214 58.834-25.21-58.826zM538.268 322.708c58.092 12.118 101.732 63.602 101.732 125.292 0 70.694-57.306 128-128 128-70.692 0-128-57.306-128-128 0-61.692 43.662-113.122 101.76-125.228l-74.624-174.122c-91.23 39.15-155.136 129.784-155.136 235.35 0 141.384 114.616 268 256 268s256-126.616 256-268c0-105.566-63.906-196.2-155.136-235.35l-74.596 174.058zM688.448-27.708l-73.924 172.486c126.446 42.738 217.476 162.346 217.476 303.222 0 176.73-143.268 320-320 320-176.73 0-320-143.27-320-320 0-140.876 91.030-260.484 217.476-303.222l-73.924-172.486c-159.594 68.488-271.386 227.034-271.386 411.708 0 247.332 200.502 459.834 447.834 459.834s447.834-212.502 447.834-459.834c0-184.674-111.792-343.22-271.386-411.708z" />
<glyph unicode="&#xe91e;" glyph-name="mic" d="M480 256c88.366 0 160 71.634 160 160v384c0 88.366-71.634 160-160 160s-160-71.634-160-160v-384c0-88.366 71.636-160 160-160zM704 512v-96c0-123.71-100.29-224-224-224-123.712 0-224 100.29-224 224v96h-64v-96c0-148.238 112.004-270.3 256-286.22v-129.78h-128v-64h320v64h-128v129.78c143.994 15.92 256 137.982 256 286.22v96h-64z" />
<glyph unicode="&#xe920;" glyph-name="books" horiz-adv-x="1152" d="M224 832h-192c-17.6 0-32-14.4-32-32v-704c0-17.6 14.4-32 32-32h192c17.6 0 32 14.4 32 32v704c0 17.6-14.4 32-32 32zM192 640h-128v64h128v-64zM544 832h-192c-17.6 0-32-14.4-32-32v-704c0-17.6 14.4-32 32-32h192c17.6 0 32 14.4 32 32v704c0 17.6-14.4 32-32 32zM512 640h-128v64h128v-64zM765.088 782.52l-171.464-86.394c-15.716-7.918-22.096-27.258-14.178-42.976l287.978-571.548c7.918-15.718 27.258-22.098 42.976-14.178l171.464 86.392c15.716 7.92 22.096 27.26 14.178 42.974l-287.978 571.55c-7.92 15.718-27.26 22.1-42.976 14.18z" />
<glyph unicode="&#xe938;" glyph-name="qrcode" d="M320 896h-256v-256h256v256zM384 960v0-384h-384v384h384zM128 832h128v-128h-128zM960 896h-256v-256h256v256zM1024 960v0-384h-384v384h384zM768 832h128v-128h-128zM320 256h-256v-256h256v256zM384 320v0-384h-384v384h384zM128 192h128v-128h-128zM448 960h64v-64h-64zM512 896h64v-64h-64zM448 832h64v-64h-64zM512 768h64v-64h-64zM448 704h64v-64h-64zM512 640h64v-64h-64zM448 576h64v-64h-64zM448 448h64v-64h-64zM512 384h64v-64h-64zM448 320h64v-64h-64zM512 256h64v-64h-64zM448 192h64v-64h-64zM512 128h64v-64h-64zM448 64h64v-64h-64zM512 0h64v-64h-64zM960 448h64v-64h-64zM64 448h64v-64h-64zM128 512h64v-64h-64zM0 512h64v-64h-64zM256 512h64v-64h-64zM320 448h64v-64h-64zM384 512h64v-64h-64zM576 448h64v-64h-64zM640 512h64v-64h-64zM704 448h64v-64h-64zM768 512h64v-64h-64zM832 448h64v-64h-64zM896 512h64v-64h-64zM960 320h64v-64h-64zM576 320h64v-64h-64zM640 384h64v-64h-64zM704 320h64v-64h-64zM832 320h64v-64h-64zM896 384h64v-64h-64zM960 192h64v-64h-64zM576 192h64v-64h-64zM640 256h64v-64h-64zM768 256h64v-64h-64zM832 192h64v-64h-64zM896 256h64v-64h-64zM960 64h64v-64h-64zM640 128h64v-64h-64zM704 64h64v-64h-64zM768 128h64v-64h-64zM832 64h64v-64h-64zM640 0h64v-64h-64zM768 0h64v-64h-64zM896 0h64v-64h-64z" />
<glyph unicode="&#xe945;" glyph-name="envelop" d="M928 832h-832c-52.8 0-96-43.2-96-96v-640c0-52.8 43.2-96 96-96h832c52.8 0 96 43.2 96 96v640c0 52.8-43.2 96-96 96zM398.74 409.628l-270.74-210.892v501.642l270.74-290.75zM176.38 704h671.24l-335.62-252-335.62 252zM409.288 398.302l102.712-110.302 102.71 110.302 210.554-270.302h-626.528l210.552 270.302zM625.26 409.628l270.74 290.75v-501.642l-270.74 210.892z" />
<glyph unicode="&#xe946;" glyph-name="pushpin" d="M544 960l-96-96 96-96-224-256h-224l176-176-272-360.616v-39.384h39.384l360.616 272 176-176v224l256 224 96-96 96 96-480 480zM448 416l-64 64 224 224 64-64-224-224z" />
<glyph unicode="&#xe955;" glyph-name="keyboard" horiz-adv-x="1152" d="M1088 832h-1024c-35.2 0-64-28.8-64-64v-640c0-35.2 28.8-64 64-64h1024c35.2 0 64 28.8 64 64v640c0 35.2-28.8 64-64 64zM640 704h128v-128h-128v128zM832 512v-128h-128v128h128zM448 704h128v-128h-128v128zM640 512v-128h-128v128h128zM256 704h128v-128h-128v128zM448 512v-128h-128v128h128zM128 704h64v-128h-64v128zM128 512h128v-128h-128v128zM192 192h-64v128h64v-128zM768 192h-512v128h512v-128zM1024 192h-192v128h192v-128zM1024 384h-128v128h128v-128zM1024 576h-192v128h192v-128z" />
<glyph unicode="&#xe956;" glyph-name="display" d="M0 896v-640h1024v640h-1024zM960 320h-896v512h896v-512zM672 192h-320l-32-128-64-64h512l-64 64z" />
<glyph unicode="&#xe959;" glyph-name="mobile2" d="M768 960h-576c-35.2 0-64-28.798-64-64v-896c0-35.2 28.798-64 64-64h576c35.2 0 64 28.8 64 64v896c0 35.202-28.8 64-64 64zM480-17.782c-27.492 0-49.782 22.29-49.782 49.782s22.29 49.782 49.782 49.782 49.782-22.29 49.782-49.782-22.29-49.782-49.782-49.782zM768 128h-576v704h576v-704z" />
<glyph unicode="&#xe9a9;" glyph-name="fire" d="M321.008-64c-68.246 142.008-31.902 223.378 20.55 300.044 57.44 83.956 72.244 167.066 72.244 167.066s45.154-58.7 27.092-150.508c79.772 88.8 94.824 230.28 82.782 284.464 180.314-126.012 257.376-398.856 153.522-601.066 552.372 312.532 137.398 780.172 65.154 832.85 24.082-52.676 28.648-141.85-20-185.126-82.352 312.276-285.972 376.276-285.972 376.276 24.082-161.044-87.296-337.144-194.696-468.73-3.774 64.216-7.782 108.528-41.55 169.98-7.58-116.656-96.732-211.748-120.874-328.628-32.702-158.286 24.496-274.18 241.748-396.622z" />
<glyph unicode="&#xea81;" glyph-name="terminal" d="M0 896v-896h1024v896h-1024zM960 64h-896v768h896v-768zM896 768h-768v-640h768v640zM448 448h-64v-64h-64v-64h-64v64h64v64h64v64h-64v64h-64v64h64v-64h64v-64h64v-64zM704 320h-192v64h192v-64z" />
<glyph unicode="&#xeab0;" glyph-name="github" d="M512.008 947.358c-282.738 0-512.008-229.218-512.008-511.998 0-226.214 146.704-418.132 350.136-485.836 25.586-4.738 34.992 11.11 34.992 24.632 0 12.204-0.48 52.542-0.696 95.324-142.448-30.976-172.504 60.41-172.504 60.41-23.282 59.176-56.848 74.916-56.848 74.916-46.452 31.778 3.51 31.124 3.51 31.124 51.4-3.61 78.476-52.766 78.476-52.766 45.672-78.27 119.776-55.64 149.004-42.558 4.588 33.086 17.852 55.68 32.506 68.464-113.73 12.942-233.276 56.85-233.276 253.032 0 55.898 20.004 101.574 52.76 137.428-5.316 12.9-22.854 64.972 4.952 135.5 0 0 43.006 13.752 140.84-52.49 40.836 11.348 84.636 17.036 128.154 17.234 43.502-0.198 87.336-5.886 128.256-17.234 97.734 66.244 140.656 52.49 140.656 52.49 27.872-70.528 10.35-122.6 5.036-135.5 32.82-35.856 52.694-81.532 52.694-137.428 0-196.654-119.778-239.95-233.79-252.624 18.364-15.89 34.724-47.046 34.724-94.812 0-68.508-0.596-123.644-0.596-140.508 0-13.628 9.222-29.594 35.172-24.566 203.322 67.776 349.842 259.626 349.842 485.768 0 282.78-229.234 511.998-511.992 511.998z" />
<glyph unicode="&#xeab4;" glyph-name="wordpress" d="M128 448.008c0-148.026 88.322-275.968 216.43-336.578l-183.178 488.784c-21.308-46.508-33.252-97.982-33.252-152.206zM771.228 466.872c0 46.234-17.054 78.236-31.654 103.142-19.458 30.82-37.72 56.894-37.72 87.716 0 34.374 26.766 66.376 64.486 66.376 1.704 0 3.32-0.204 4.976-0.302-68.316 60.97-159.34 98.196-259.308 98.196-134.16 0-252.186-67.046-320.844-168.568 9.010-0.282 17.506-0.454 24.712-0.454 40.154 0 102.34 4.752 102.34 4.752 20.69 1.182 23.132-28.434 2.458-30.822 0 0-20.81-2.368-43.952-3.55l139.834-405.106 84.044 245.456-59.822 159.65c-20.688 1.184-40.278 3.55-40.278 3.55-20.702 1.192-18.272 32.002 2.438 30.822 0 0 63.4-4.752 101.134-4.752 40.146 0 102.35 4.752 102.35 4.752 20.702 1.182 23.14-28.434 2.446-30.822 0 0-20.834-2.372-43.948-3.55l138.78-402.018 38.312 124.632c16.58 51.75 29.216 88.9 29.216 120.9zM518.742 415.296l-115.226-326.058c34.416-9.858 70.794-15.238 108.488-15.238 44.716 0 87.604 7.518 127.518 21.2-1.018 1.602-1.974 3.304-2.75 5.154l-118.030 314.942zM848.962 627.428c1.652-11.91 2.588-24.686 2.588-38.458 0-37.93-7.292-80.596-29.202-133.95l-117.286-330.272c114.162 64.828 190.938 185.288 190.938 323.258 0 65.030-17.060 126.16-47.038 179.422zM512 960c-282.77 0-512-229.23-512-512s229.23-512 512-512 512 229.23 512 512-229.23 512-512 512zM512 0c-247.424 0-448 200.576-448 448s200.576 448 448 448 448-200.576 448-448-200.576-448-448-448z" />
<glyph unicode="&#xeab5;" glyph-name="joomla" d="M266.004 683.322c32.832 32.844 86.002 32.844 118.804 0.032l7.826-7.868 101.104 101.156-7.874 7.88c-57.624 57.7-138.514 77.878-212.42 60.522-10.594 65.182-67.088 114.924-135.174 114.956-75.65 0-136.954-61.442-136.97-137.158 0-65.336 45.59-120 106.662-133.83-23.138-77.45-4.242-164.834 56.846-225.984l227.826-227.9 100.996 101.214-227.81 227.886c-32.682 32.722-32.742 86.126 0.184 119.094zM1022.712 822.842c0.016 75.762-61.318 137.158-136.984 137.158-69.234 0-126.478-51.444-135.682-118.238-77.074 22.664-163.784 3.496-224.64-57.408l-227.84-227.9 101.102-101.172 227.766 227.856c32.94 32.966 85.988 32.906 118.684 0.184 32.8-32.83 32.8-86.114-0.032-118.956l-7.794-7.836 101.010-101.248 7.858 7.928c60.458 60.566 79.678 146.756 57.612 223.638 67.15 8.834 118.94 66.364 118.94 135.994zM906.266 208.936c18.102 74.458-1.976 156.324-60.108 214.5l-227.49 227.992-101.102-101.122 227.52-228.012c32.94-32.996 32.864-86.096 0.184-118.848-32.802-32.814-86.004-32.814-118.836 0.030l-7.766 7.79-100.994-101.246 7.732-7.728c61.516-61.594 149.618-80.438 227.368-56.488 12.632-62.682 67.934-109.804 134.258-109.804 75.604 0 136.968 61.35 136.968 137.126 0 69.2-51.18 126.456-117.734 135.81zM612.344 431.316l-227.536-227.992c-32.71-32.768-86.034-32.828-118.944 0.124-32.818 32.904-32.832 86.098-0.044 118.97l7.808 7.774-101.086 101.124-7.734-7.712c-58.76-58.802-78.56-141.834-59.45-216.982-60.398-14.26-105.358-68.634-105.358-133.496-0.016-75.746 61.332-137.126 136.982-137.126 65.1 0.032 119.588 45.418 133.54 106.382 74.702-18.552 156.998 1.304 215.344 59.756l227.49 227.96-101.012 101.218z" />
<glyph unicode="&#xeac6;" glyph-name="reddit" d="M256 320c0 35.346 28.654 64 64 64s64-28.654 64-64c0-35.346-28.654-64-64-64s-64 28.654-64 64zM640 320c0 35.346 28.654 64 64 64s64-28.654 64-64c0-35.346-28.654-64-64-64s-64 28.654-64 64zM643.112 183.222c16.482 12.986 40.376 10.154 53.364-6.332s10.152-40.378-6.334-53.366c-45.896-36.158-115.822-59.524-178.142-59.524-62.322 0-132.248 23.366-178.144 59.522-16.486 12.99-19.32 36.882-6.332 53.368 12.99 16.482 36.882 19.318 53.366 6.332 26.422-20.818 78.722-43.222 131.11-43.222s104.688 22.404 131.112 43.222zM1024 448c0 70.692-57.308 128-128 128-48.116 0-89.992-26.57-111.852-65.82-65.792 35.994-145.952 59.246-233.28 64.608l76.382 171.526 146.194-42.2c13.152-37.342 48.718-64.114 90.556-64.114 53.020 0 96 42.98 96 96s-42.98 96-96 96c-36.56 0-68.342-20.442-84.554-50.514l-162.906 47.024c-18.224 5.258-37.538-3.722-45.252-21.052l-103.77-233.026c-85.138-5.996-163.262-29.022-227.636-64.236-21.864 39.25-63.766 65.804-111.882 65.804-70.692 0-128-57.308-128-128 0-52.312 31.402-97.254 76.372-117.102-8.070-24.028-12.372-49.104-12.372-74.898 0-176.73 200.576-320 448-320 247.422 0 448 143.27 448 320 0 25.792-4.3 50.862-12.368 74.886 44.97 19.85 76.368 64.802 76.368 117.114zM864 772c19.882 0 36-16.118 36-36s-16.118-36-36-36-36 16.118-36 36 16.118 36 36 36zM64 448c0 35.29 28.71 64 64 64 25.508 0 47.572-15.004 57.846-36.646-33.448-25.366-61.166-54.626-81.666-86.738-23.524 9.47-40.18 32.512-40.18 59.384zM512 12c-205.45 0-372 109.242-372 244s166.55 244 372 244c205.45 0 372-109.242 372-244s-166.55-244-372-244zM919.82 388.616c-20.5 32.112-48.218 61.372-81.666 86.738 10.276 21.642 32.338 36.646 57.846 36.646 35.29 0 64-28.71 64-64 0-26.872-16.656-49.914-40.18-59.384z" />
<glyph unicode="&#xeac9;" glyph-name="linkedin" d="M928 960h-832c-52.8 0-96-43.2-96-96v-832c0-52.8 43.2-96 96-96h832c52.8 0 96 43.2 96 96v832c0 52.8-43.2 96-96 96zM384 128h-128v448h128v-448zM320 640c-35.4 0-64 28.6-64 64s28.6 64 64 64c35.4 0 64-28.6 64-64s-28.6-64-64-64zM832 128h-128v256c0 35.4-28.6 64-64 64s-64-28.6-64-64v-256h-128v448h128v-79.4c26.4 36.2 66.8 79.4 112 79.4 79.6 0 144-71.6 144-160v-288z" />
<glyph unicode="&#xead0;" glyph-name="stackoverflow" d="M1024 320v-384h-1024v384h128v-256h768v256zM192 256h640v-128h-640zM207.152 394.534l27.698 124.964 624.832-138.496-27.698-124.964zM279.658 651.442l54.092 116.006 580.032-270.464-54.092-116.006zM991.722 598.524l-77.922-101.55-507.746 389.608 56.336 73.418h58.244z" />
</font>
</defs>
</svg>
